<?xml version="1.0" encoding="UTF-8"?>
<svg version="1.1" xmlns="http://www.w3.org/2000/svg" width="400" height="400">
<path d="M0 0 C2.4439657 1.11303498 4.59335279 2.24468939 6.875 3.625 C7.55062988 4.01888916 8.22625977 4.41277832 8.92236328 4.81860352 C10.44114358 5.70593348 11.95641189 6.59929277 13.46875 7.49755859 C17.22817141 9.72898986 21.00578192 11.92902419 24.78173828 14.13232422 C26.85913217 15.34465653 28.93561763 16.55854669 31.01123047 17.77392578 C36.96844699 21.25685114 42.95264188 24.67627707 49 28 C59.16476573 33.59091241 69.16181113 39.46534926 79.16455078 45.33984375 C81.78021421 46.87131536 84.40207241 48.39132549 87.02734375 49.90625 C105.33139222 60.49708833 105.33139222 60.49708833 109 66 C109.25447559 68.29173088 109.25447559 68.29173088 109.26069641 71.03463745 C109.26778122 72.07489075 109.27486603 73.11514404 109.28216553 74.18692017 C109.27968811 75.32777069 109.27721069 76.46862122 109.2746582 77.64404297 C109.27976913 78.84589233 109.28488007 80.0477417 109.29014587 81.28601074 C109.30167678 84.58366711 109.30411336 87.88107238 109.30158257 91.17873144 C109.3005133 93.93216377 109.30539522 96.68557289 109.310188 99.43900025 C109.32128717 105.9360764 109.32171863 112.43309474 109.31567383 118.93017578 C109.30963594 125.63022002 109.32193926 132.33005416 109.3432439 139.03006256 C109.36086637 144.78388268 109.36686015 150.53763598 109.36360615 156.29148209 C109.36179379 159.7272965 109.36442437 163.16296111 109.37832069 166.59875107 C109.39324253 170.43164036 109.3839232 174.26426276 109.37231445 178.09716797 C109.37995819 179.23397003 109.38760193 180.37077209 109.39547729 181.54202271 C109.38846298 182.58791565 109.38144867 183.63380859 109.3742218 184.71139526 C109.37438954 185.61730848 109.37455729 186.5232217 109.37473011 187.45658684 C108.79901391 191.36415693 107.15383127 194.09770597 104.05249023 196.52294922 C102.94176147 197.15740967 102.94176147 197.15740967 101.80859375 197.8046875 C100.95990723 198.29767334 100.1112207 198.79065918 99.23681641 199.29858398 C98.31304199 199.81880127 97.38926758 200.33901855 96.4375 200.875 C94.982229 201.71430054 94.982229 201.71430054 93.49755859 202.57055664 C91.4136463 203.7708517 89.32661765 204.96574934 87.23681641 206.15576172 C84.01930992 207.9889978 80.81109 209.8374764 77.60546875 211.69140625 C73.2439652 214.21372553 68.87911958 216.73009412 64.51171875 219.2421875 C58.30236961 222.81858078 52.11919821 226.43860543 45.9375 230.0625 C36.48494219 235.59996478 26.95477354 240.98837752 17.37084961 246.29516602 C16.39253174 246.83842529 15.41421387 247.38168457 14.40625 247.94140625 C13.47554687 248.45590332 12.54484375 248.97040039 11.5859375 249.50048828 C9.22724356 250.86822791 7.02065583 252.35077099 4.78125 253.90234375 C0.63734812 256.52108916 -2.14336157 256.63645463 -7 256 C-10 254.7421875 -10 254.7421875 -13 252.875 C-14.21056808 252.1413172 -15.42153885 251.4082986 -16.6328125 250.67578125 C-17.31118164 250.2576416 -17.98955078 249.83950195 -18.68847656 249.40869141 C-23.37376115 246.55337961 -28.13253697 243.82136862 -32.875 241.0625 C-33.92155762 240.45075928 -34.96811523 239.83901855 -36.04638672 239.20874023 C-41.71112691 235.89936733 -47.39269532 232.62828528 -53.125 229.4375 C-60.27732798 225.45466789 -67.31116103 221.28155373 -74.34472656 217.09326172 C-82.22896924 212.41480502 -90.20286492 207.90604905 -98.23657227 203.48925781 C-112.81241681 195.37516638 -112.81241681 195.37516638 -115 191 C-115.10548146 189.35621423 -115.14820411 187.70823124 -115.16062927 186.06111145 C-115.17569771 184.49450775 -115.17569771 184.49450775 -115.19107056 182.89625549 C-115.19690155 181.74560104 -115.20273254 180.59494659 -115.20874023 179.40942383 C-115.21852402 178.2011795 -115.2283078 176.99293518 -115.23838806 175.74807739 C-115.26839528 171.7344052 -115.29004483 167.72076867 -115.30859375 163.70703125 C-115.31189107 163.0239319 -115.31518839 162.34083255 -115.31858563 161.63703322 C-115.34937269 155.19287245 -115.37607734 148.74870699 -115.39300442 142.3044939 C-115.41489862 134.06607235 -115.45683781 125.82830361 -115.52644199 117.59014302 C-115.57373396 111.79556513 -115.597945 106.00116299 -115.6052013 100.20639819 C-115.61015091 96.74677355 -115.62516241 93.28788443 -115.6649456 89.82847023 C-115.7087926 85.96463758 -115.70490347 82.1016388 -115.69702148 78.23754883 C-115.71702209 77.09701553 -115.73702271 75.95648224 -115.75762939 74.78138733 C-115.69994907 68.48263571 -115.08038568 64.79753446 -110.53835869 60.27192211 C-108.43079313 58.52937711 -106.34294814 57.20424155 -103.88671875 56 C-102.45465088 55.26910156 -102.45465088 55.26910156 -100.99365234 54.5234375 C-100.00574707 54.02070312 -99.0178418 53.51796875 -98 53 C-96.02000731 51.88796285 -94.04744 50.76261423 -92.08203125 49.625 C-90.56125977 48.74714844 -90.56125977 48.74714844 -89.00976562 47.8515625 C-87.95466797 47.24054688 -86.89957031 46.62953125 -85.8125 46 C-84.11963867 45.02160156 -84.11963867 45.02160156 -82.39257812 44.0234375 C-73.93485251 39.13286454 -65.49580777 34.21041333 -57.05981445 29.2824707 C-46.36283553 23.03721007 -35.63913948 16.83917636 -24.89648438 10.67285156 C-22.2594326 9.14983413 -19.63546172 7.60706413 -17.015625 6.0546875 C-15.59379564 5.22388022 -14.17192456 4.39314433 -12.75 3.5625 C-11.83057617 3.00502075 -11.83057617 3.00502075 -10.89257812 2.4362793 C-7.07995122 0.23190151 -4.37954204 -0.65408745 0 0 Z M-7.69140625 26.87890625 C-8.45831787 27.297771 -9.22522949 27.71663574 -10.01538086 28.14819336 C-11.27620483 28.84827515 -11.27620483 28.84827515 -12.5625 29.5625 C-13.44365479 30.04920166 -14.32480957 30.53590332 -15.23266602 31.03735352 C-23.46652608 35.62668291 -31.53862401 40.47323604 -39.6027832 45.3527832 C-48.25506268 50.58133048 -57.00054218 55.62793604 -65.796875 60.609375 C-66.53204346 61.02856201 -67.26721191 61.44774902 -68.0246582 61.87963867 C-69.68414682 62.82085647 -71.35453976 63.74281213 -73.02734375 64.66015625 C-75.27207834 65.8824815 -75.27207834 65.8824815 -75.8125 68.6875 C-75.874375 69.450625 -75.93625 70.21375 -76 71 C-71.87959635 74.5526315 -67.50909802 77.05930535 -62.75 79.625 C-56.59145524 82.99549136 -50.48018084 86.42563535 -44.4375 90 C-43.74325928 90.41056641 -43.04901855 90.82113281 -42.33374023 91.24414062 C-40.92947491 92.07586399 -39.52558437 92.90822046 -38.12207031 93.74121094 C-33.12218829 96.70708665 -28.11338282 99.65753085 -23.09375 102.58984375 C-20.38499449 104.17444007 -17.70162632 105.79303402 -15.03125 107.44140625 C-13.79171434 108.19018308 -12.55213332 108.93888485 -11.3125 109.6875 C-9.69794922 110.68330078 -9.69794922 110.68330078 -8.05078125 111.69921875 C-4.369109 113.26899706 -2.84451804 112.92136123 1 112 C3.54562653 110.85478525 3.54562653 110.85478525 5.9921875 109.33203125 C6.93223633 108.77563965 7.87228516 108.21924805 8.84082031 107.64599609 C10.34273926 106.73841553 10.34273926 106.73841553 11.875 105.8125 C14.03367705 104.52964983 16.19253639 103.24710636 18.3515625 101.96484375 C19.4540332 101.30597168 20.55650391 100.64709961 21.69238281 99.96826172 C25.86046847 97.48796156 30.05260851 95.05066444 34.24829102 92.61743164 C38.20159893 90.32261598 42.14470939 88.01054626 46.08837891 85.69921875 C49.02484458 83.98550073 51.97094423 82.28923131 54.91796875 80.59375 C56.7581558 79.52142224 58.59801527 78.44853208 60.4375 77.375 C61.29053711 76.89015137 62.14357422 76.40530273 63.02246094 75.90576172 C64.18503418 75.22151123 64.18503418 75.22151123 65.37109375 74.5234375 C66.05099365 74.13075684 66.73089355 73.73807617 67.43139648 73.33349609 C69.13136775 72.07678355 69.13136775 72.07678355 69.91430664 70.02978516 C70.21295496 67.950139 70.21295496 67.950139 68.85620117 66.42895508 C66.7490712 64.80682806 64.60663461 63.46376633 62.30078125 62.13671875 C61.35114502 61.58677246 60.40150879 61.03682617 59.4230957 60.47021484 C58.39659912 59.88191895 57.37010254 59.29362305 56.3125 58.6875 C54.12490737 57.42333737 51.93741001 56.15900985 49.75 54.89453125 C48.62851563 54.24822754 47.50703125 53.60192383 46.3515625 52.93603516 C42.15726219 50.51319123 37.97627545 48.06802897 33.79614258 45.62084961 C28.86943939 42.73803687 23.9354537 39.86779957 19 37 C17.99018066 36.41283203 16.98036133 35.82566406 15.93994141 35.22070312 C13.004566 33.51698996 10.06549137 31.81986479 7.125 30.125 C6.23272705 29.60663574 5.3404541 29.08827148 4.42114258 28.55419922 C3.60411865 28.0851416 2.78709473 27.61608398 1.9453125 27.1328125 C1.22875488 26.71918457 0.51219727 26.30555664 -0.22607422 25.87939453 C-3.33218186 24.33959275 -4.81831109 25.30814235 -7.69140625 26.87890625 Z M-91.65905762 95.50909424 C-93.49576759 98.92092723 -93.45361087 102.07251526 -93.45507812 105.85449219 C-93.46664444 106.64201874 -93.47821075 107.42954529 -93.49012756 108.24093628 C-93.52201292 110.84312917 -93.52939956 113.44449541 -93.53125 116.046875 C-93.53369217 116.93789162 -93.53613434 117.82890823 -93.53865051 118.74692535 C-93.54881327 123.46363742 -93.53851394 128.1798362 -93.51318359 132.89648438 C-93.49156959 137.75770656 -93.54451758 142.61513649 -93.61429596 147.47578049 C-93.65380836 151.223731 -93.63571717 154.96986671 -93.60240173 158.71781158 C-93.59667165 160.50872462 -93.61271205 162.29985026 -93.65138245 164.09035492 C-93.90423189 172.20306393 -93.90423189 172.20306393 -92 180 C-88.07132046 183.94991844 -84.12983558 185.80918018 -79 188 C-76.94762009 189.16471118 -74.90732586 190.35131194 -72.88671875 191.5703125 C-70.82132386 192.75697035 -68.75488992 193.94182129 -66.6875 195.125 C-64.42418632 196.42527165 -62.1611729 197.72606604 -59.8984375 199.02734375 C-58.75987305 199.68202637 -57.62130859 200.33670898 -56.44824219 201.01123047 C-49.89312174 204.7918883 -43.36127402 208.61242111 -36.82885742 212.43212891 C-35.01931177 213.48983327 -33.20883572 214.5459483 -31.3972168 215.60009766 C-29.88621589 216.48247664 -28.37924937 217.37183613 -26.87817383 218.27099609 C-23.38354731 220.34104114 -21.12198991 221.49963514 -17 221 C-15.45070343 217.90140685 -15.82613412 214.61968932 -15.80712891 211.21728516 C-15.79895142 210.41387192 -15.79077393 209.61045868 -15.78234863 208.78269958 C-15.75749076 206.11816152 -15.74097908 203.45367668 -15.7265625 200.7890625 C-15.71857698 199.42574862 -15.71857698 199.42574862 -15.71043015 198.03489304 C-15.68369889 193.22574456 -15.66432253 188.41662206 -15.64990234 183.60742188 C-15.6332399 178.63480079 -15.58844899 173.66284061 -15.5375309 168.69046974 C-15.50391528 164.87121803 -15.49233128 161.05212443 -15.48667526 157.23273849 C-15.47994872 155.39945795 -15.46469034 153.56618831 -15.44078445 151.7330513 C-15.40924611 149.16864981 -15.40907829 146.60604754 -15.41650391 144.04150391 C-15.40009857 143.2829158 -15.38369324 142.5243277 -15.36679077 141.74275208 C-15.41190696 137.94089349 -15.64822233 136.35656152 -18.364151 133.60369873 C-19.23398117 133.07447815 -20.10381134 132.54525757 -21 132 C-21.90983643 131.43877441 -22.81967285 130.87754883 -23.75708008 130.29931641 C-25.24824341 129.45892822 -25.24824341 129.45892822 -26.76953125 128.6015625 C-27.89407715 127.96412109 -29.01862305 127.32667969 -30.17724609 126.66992188 C-30.76979187 126.33661865 -31.36233765 126.00331543 -31.97283936 125.65991211 C-35.12101635 123.88888629 -38.26110189 122.10360036 -41.40234375 120.3203125 C-42.04020813 119.95871033 -42.67807251 119.59710815 -43.33526611 119.22454834 C-49.54496222 115.7005739 -55.71345535 112.10743392 -61.875 108.5 C-63.82418048 107.36191362 -65.77339772 106.2238902 -67.72265625 105.0859375 C-70.98413483 103.18063049 -74.24158967 101.26875055 -77.49609375 99.3515625 C-78.76803871 98.60904864 -80.04015694 97.86683147 -81.3125 97.125 C-82.36050781 96.50882812 -83.40851563 95.89265625 -84.48828125 95.2578125 C-87.48388938 93.75767904 -89.05839256 93.14350512 -91.65905762 95.50909424 Z M80.08984375 94.51171875 C79.37957031 94.89972656 78.66929687 95.28773438 77.9375 95.6875 C77.05191406 96.16703125 76.16632813 96.6465625 75.25390625 97.140625 C74.18011719 97.75421875 73.10632813 98.3678125 72 99 C71.36175293 99.36287109 70.72350586 99.72574219 70.06591797 100.09960938 C64.3515827 103.35583761 58.67431998 106.67467791 53 110 C48.98004377 112.35566882 44.95939264 114.71013855 40.9375 117.0625 C39.93050049 117.6517627 38.92350098 118.24102539 37.88598633 118.84814453 C30.73354135 123.02103075 23.53133803 127.09314337 16.26733398 131.06860352 C12.92962671 132.74601036 12.92962671 132.74601036 10 135 C9.89956729 137.64200061 9.8638315 140.2578859 9.87060547 142.90039062 C9.86885315 143.72798386 9.86710083 144.55557709 9.86529541 145.4082489 C9.86087607 148.15760362 9.86381517 150.90689457 9.8671875 153.65625 C9.86651448 155.55814629 9.86554448 157.46004249 9.86428833 159.36193848 C9.86281125 163.35344255 9.86496625 167.34492429 9.86962891 171.33642578 C9.8753262 176.46490507 9.87204725 181.59333202 9.86605644 186.72180939 C9.86245111 190.65074054 9.86358928 194.57965918 9.86618423 198.5085907 C9.86685358 200.40012112 9.86602481 202.29165265 9.86370468 204.18318176 C9.86117862 206.82202177 9.86501809 209.46077581 9.87060547 212.09960938 C9.86858124 212.88925583 9.86655701 213.67890228 9.86447144 214.49247742 C9.54954446 218.040699 9.54954446 218.040699 11 221 C18.00216477 220.86734735 22.96121684 217.4457045 28.8125 213.875 C30.95257143 212.59672901 33.09321711 211.31941904 35.234375 210.04296875 C36.89629883 209.04595947 36.89629883 209.04595947 38.59179688 208.02880859 C44.21142277 204.68360149 49.88934099 201.44077324 55.5625 198.1875 C66.27683714 192.01474866 66.27683714 192.01474866 76.9375 185.75 C78.06027344 185.08484375 79.18304688 184.4196875 80.33984375 183.734375 C83.54879266 181.73643396 83.54879266 181.73643396 86 179 C86.28051469 176.26939835 86.37904158 173.76965708 86.34057617 171.0402832 C86.34101425 170.23029877 86.34145233 169.42031433 86.34190369 168.58578491 C86.33981284 165.90720556 86.31646814 163.22925132 86.29296875 160.55078125 C86.28737384 158.69419191 86.28310325 156.83759815 86.28010559 154.98100281 C86.26864854 150.09333071 86.23917394 145.20592585 86.20599365 140.31835938 C86.17531132 135.33141699 86.16160418 130.34443144 86.14648438 125.35742188 C86.11430508 115.57149714 86.06309831 105.78577079 86 96 C83.1977108 94.28249987 83.1977108 94.28249987 80.08984375 94.51171875 Z " fill="#9FEE04" transform="translate(203,72)"/>
<path d="M0 0 C20.28653278 9.51584785 20.28653278 9.51584785 25 17 C25.37752342 19.41477871 25.37752342 19.41477871 25.38095093 22.15489197 C25.3894104 23.19651993 25.39786987 24.23814789 25.40658569 25.31134033 C25.39747665 27.01722321 25.39747665 27.01722321 25.38818359 28.75756836 C25.39606903 30.56056145 25.39606903 30.56056145 25.40411377 32.39997864 C25.4150552 35.69355991 25.41249046 38.98657579 25.40297651 42.28012538 C25.39537594 45.72912142 25.40242679 49.17809346 25.40713501 52.62709045 C25.41259215 58.41997611 25.40540287 64.21274701 25.39111328 70.00561523 C25.37479445 76.69830753 25.38006969 83.39072553 25.3965925 90.08341116 C25.41021781 95.83301542 25.41212171 101.58253723 25.40427649 107.33215243 C25.39960469 110.7645861 25.39896128 114.19689098 25.40888596 117.62931633 C25.41918128 121.4573312 25.40490107 125.28504034 25.38818359 129.11303711 C25.39425629 130.24826813 25.40032898 131.38349915 25.40658569 132.5531311 C25.39389648 134.11980278 25.39389648 134.11980278 25.38095093 135.71812439 C25.37981985 136.62273879 25.37868877 137.52735319 25.37752342 138.45938015 C24.79730585 142.36407107 23.15231116 145.09889469 20.05249023 147.52294922 C18.94176147 148.15740967 18.94176147 148.15740967 17.80859375 148.8046875 C16.95990723 149.29767334 16.1112207 149.79065918 15.23681641 150.29858398 C14.31304199 150.81880127 13.38926758 151.33901855 12.4375 151.875 C10.982229 152.71430054 10.982229 152.71430054 9.49755859 153.57055664 C7.4136463 154.7708517 5.32661765 155.96574934 3.23681641 157.15576172 C0.01930992 158.9889978 -3.18891 160.8374764 -6.39453125 162.69140625 C-10.7560348 165.21372553 -15.12088042 167.73009412 -19.48828125 170.2421875 C-25.69763039 173.81858078 -31.88080179 177.43860543 -38.0625 181.0625 C-47.51505781 186.59996478 -57.04522646 191.98837752 -66.62915039 197.29516602 C-67.60746826 197.83842529 -68.58578613 198.38168457 -69.59375 198.94140625 C-70.52445313 199.45590332 -71.45515625 199.97040039 -72.4140625 200.50048828 C-74.77275644 201.86822791 -76.97934417 203.35077099 -79.21875 204.90234375 C-83.37426084 207.52392325 -86.12889953 207.65338084 -91 207 C-94.24609375 205.6015625 -94.24609375 205.6015625 -97.4375 203.625 C-98.63663151 202.89699171 -99.83585483 202.16913461 -101.03515625 201.44140625 C-101.66695801 201.04969238 -102.29875977 200.65797852 -102.94970703 200.25439453 C-105.17481876 198.89304372 -107.42463185 197.58171058 -109.68359375 196.27734375 C-111.24741292 195.37242536 -112.81121526 194.46747789 -114.375 193.5625 C-115.50893188 192.90725342 -115.50893188 192.90725342 -116.66577148 192.23876953 C-118.46056905 191.18721317 -120.23290935 190.09747882 -122 189 C-122 188.67 -122 188.34 -122 188 C-114.57142857 189 -114.57142857 189 -111 190 C-111 190.99 -111 191.98 -111 193 C-110.278125 193.268125 -109.55625 193.53625 -108.8125 193.8125 C-106.00233617 194.99901362 -103.51583443 196.27485639 -101 198 C-101 198.66 -101 199.32 -101 200 C-100.30132812 200.12117187 -99.60265625 200.24234375 -98.8828125 200.3671875 C-97.51769531 200.61855469 -97.51769531 200.61855469 -96.125 200.875 C-94.76761719 201.11863281 -94.76761719 201.11863281 -93.3828125 201.3671875 C-91 202 -91 202 -89 204 C-85.91652174 204.16681109 -85.91652174 204.16681109 -83 204 C-82.67 203.01 -82.34 202.02 -82 201 C-79.36 200.67 -76.72 200.34 -74 200 C-74 199.34 -74 198.68 -74 198 C-73.360625 197.87625 -72.72125 197.7525 -72.0625 197.625 C-71.381875 197.41875 -70.70125 197.2125 -70 197 C-69.67 196.34 -69.34 195.68 -69 195 C-68.01 195 -67.02 195 -66 195 C-66 194.34 -66 193.68 -66 193 C-65.01 193 -64.02 193 -63 193 C-62.67 192.01 -62.34 191.02 -62 190 C-60.35 189.67 -58.7 189.34 -57 189 C-57 188.34 -57 187.68 -57 187 C-55.68 187 -54.36 187 -53 187 C-52.67 186.01 -52.34 185.02 -52 184 C-50.00531118 183.31760646 -48.00342734 182.65629516 -46 182 C-40.98287061 179.49143531 -36.06187467 176.80638798 -31.4375 173.625 C-29 172 -29 172 -27 172 C-27.33 171.01 -27.66 170.02 -28 169 C-26 168 -26 168 -23 168 C-22.67 167.34 -22.34 166.68 -22 166 C-19.21554985 165.14634032 -16.40528189 164.52662885 -13.56640625 163.87890625 C-10.6822812 163.18149276 -10.6822812 163.18149276 -9 160 C-6.375 159.8125 -6.375 159.8125 -4 160 C-3.773125 159.38125 -3.54625 158.7625 -3.3125 158.125 C-1.59625732 155.34632138 -0.02915578 155.08184135 3 154 C4.33849671 153.00692179 5.67151309 152.00642948 7 151 C9 150 11 149 13 148 C14.0725 147.278125 15.145 146.55625 16.25 145.8125 C19 144 19 144 21 144 C21 143.01 21 142.02 21 141 C21.66 141 22.32 141 23 141 C22.89285318 125.38843731 22.78010852 109.77692581 22.66066074 94.16545296 C22.6053329 86.91712187 22.55185163 79.66878587 22.50268555 72.42041016 C22.45983833 66.10428662 22.41355899 59.78819926 22.36312145 53.47213161 C22.33652483 50.12642291 22.31167188 46.78072137 22.29092598 43.43497086 C22.26693072 39.70415469 22.23686951 35.97343462 22.20532227 32.24267578 C22.1995668 31.12777771 22.19381134 30.01287964 22.18788147 28.86419678 C22.17319824 27.34552505 22.17319824 27.34552505 22.15821838 25.7961731 C22.15176583 24.91309542 22.14531328 24.03001774 22.1386652 23.12018013 C22.13404439 20.94484956 22.13404439 20.94484956 21 19 C21.66 19 22.32 19 23 19 C22.67 17.68 22.34 16.36 22 15 C20.35 14.67 18.7 14.34 17 14 C17 13.34 17 12.68 17 12 C15.7934375 11.5978125 15.7934375 11.5978125 14.5625 11.1875 C13.716875 10.795625 12.87125 10.40375 12 10 C11.67 9.01 11.34 8.02 11 7 C9.35 6.67 7.7 6.34 6 6 C6 5.34 6 4.68 6 4 C4.68 4 3.36 4 2 4 C2 3.34 2 2.68 2 2 C1.34 2 0.68 2 0 2 C0 1.34 0 0.68 0 0 Z " fill="#A9D734" transform="translate(287,121)"/>
<path d="M0 0 C1.62463842 -0.05395478 3.24978541 -0.09277195 4.875 -0.125 C6.23238281 -0.15980469 6.23238281 -0.15980469 7.6171875 -0.1953125 C10 0 10 0 12 2 C12.125 4.625 12.125 4.625 12 7 C12.99 7.495 12.99 7.495 14 8 C13.67 8.33 13.34 8.66 13 9 C12.88102933 11.30411011 12.83252541 13.61187046 12.81054688 15.91894531 C12.80225357 16.64257767 12.79396027 17.36621002 12.78541565 18.11177063 C12.76797551 19.68869046 12.75281965 21.26563678 12.73963928 22.84259796 C12.71865618 25.33928772 12.69162658 27.83584588 12.66296387 30.3324585 C12.60316064 35.63825516 12.55110906 40.94411345 12.5 46.25 C12.44074598 52.38369342 12.37832674 58.51732318 12.30812073 64.65090179 C12.28159501 67.10865753 12.26074521 69.5664197 12.2401123 72.02423096 C12.22350027 73.53731586 12.20662765 75.05039794 12.18945312 76.56347656 C12.17066101 78.54084808 12.17066101 78.54084808 12.15148926 80.5581665 C12.02178955 83.50494172 11.6860319 86.13981826 11 89 C10.34 89 9.68 89 9 89 C9 89.66 9 90.32 9 91 C7.35 91.66 5.7 92.32 4 93 C4 93.66 4 94.32 4 95 C0.535 95.495 0.535 95.495 -3 96 C-3 96.66 -3 97.32 -3 98 C-3.66 98 -4.32 98 -5 98 C-5 98.66 -5 99.32 -5 100 C-10.35006016 103.28767869 -14.68368172 105.59683075 -21 106 C-18.51218995 103.21845737 -15.75632022 101.55925044 -12.52734375 99.71484375 C-10.93116211 98.79541992 -10.93116211 98.79541992 -9.30273438 97.85742188 C-7.63694336 96.90706055 -7.63694336 96.90706055 -5.9375 95.9375 C-3.73666307 94.678606 -1.53736448 93.4170176 0.66015625 92.15234375 C1.63605713 91.59538818 2.61195801 91.03843262 3.61743164 90.46459961 C6.07199815 89.08273077 6.07199815 89.08273077 8 87 C8.18795611 84.34955896 8.25183861 81.80449186 8.22705078 79.15380859 C8.22734283 78.34397018 8.22763489 77.53413177 8.22793579 76.69975281 C8.2265395 74.01587304 8.21096435 71.33226893 8.1953125 68.6484375 C8.19158343 66.79041699 8.18873596 64.93239452 8.18673706 63.07437134 C8.17909224 58.17853386 8.15943649 53.28281461 8.1373291 48.38702393 C8.11688893 43.39344889 8.10773926 38.39985479 8.09765625 33.40625 C8.07619138 23.60411466 8.04204522 13.80206715 8 4 C5.19722291 2.73126032 5.19722291 2.73126032 3.1875 3.609375 C-6.05113044 8.42666087 -15.01224216 13.73434964 -24 19 C-27.11977027 20.82647638 -30.23987524 22.65237169 -33.36083984 24.47680664 C-35.39604997 25.6669408 -37.4302913 26.85873382 -39.46337891 28.05249023 C-58.16847959 39 -58.16847959 39 -61 39 C-60.34 37.35 -59.68 35.7 -59 34 C-58.01 34 -57.02 34 -56 34 C-56 33.01 -56 32.02 -56 31 C-55.34 31 -54.68 31 -54 31 C-53.67 30.01 -53.34 29.02 -53 28 C-50.67328146 27.31060191 -48.33932406 26.64533078 -46 26 C-45.53722656 25.51917969 -45.07445312 25.03835937 -44.59765625 24.54296875 C-42.50465823 22.52161369 -40.6020077 22.07327483 -37.8125 21.3125 C-36.91144531 21.06113281 -36.01039063 20.80976563 -35.08203125 20.55078125 C-34.39496094 20.36902344 -33.70789063 20.18726563 -33 20 C-33 19.67 -33 19.34 -33 19 C-31.35 19 -29.7 19 -28 19 C-27.505 17.515 -27.505 17.515 -27 16 C-23.49174013 12.59197613 -20.85437999 11.45157023 -16 11 C-16 10.34 -16 9.68 -16 9 C-15.01 8.34 -14.02 7.68 -13 7 C-13 6.67 -13 6.34 -13 6 C-11.58398286 5.51891725 -10.16715563 5.04021859 -8.75 4.5625 C-7.96109375 4.29566406 -7.1721875 4.02882812 -6.359375 3.75390625 C-4.25178012 3.08045292 -2.15246027 2.50849405 0 2 C0 1.34 0 0.68 0 0 Z " fill="#A7E025" transform="translate(280,164)"/>
<path d="M0 0 C4.29 0.33 8.58 0.66 13 1 C13.33 2.32 13.66 3.64 14 5 C14.62648437 5.07476562 15.25296875 5.14953125 15.8984375 5.2265625 C18.40598191 5.62998447 20.63497183 6.06609491 23 7 C24.5625 10.125 24.5625 10.125 25 13 C26.32 13 27.64 13 29 13 C29.33 14.32 29.66 15.64 30 17 C31.11375 17.12375 32.2275 17.2475 33.375 17.375 C37 18 37 18 39 20 C39.21432 22.75423928 39.30411078 25.40916419 39.30639648 28.16577148 C39.31472 29.0098053 39.32304352 29.85383911 39.33161926 30.72344971 C39.35577997 33.52271084 39.3644983 36.32173931 39.37109375 39.12109375 C39.38005477 41.06161064 39.38917651 43.0021268 39.39845276 44.94264221 C39.41496134 49.0139433 39.42264639 53.08516196 39.42553711 57.15649414 C39.43092588 62.38034461 39.46861825 67.60342359 39.51428127 72.82705593 C39.54398242 76.83586984 39.55125913 80.84449632 39.55226326 84.85341072 C39.55647865 86.77960815 39.56896542 88.70580549 39.58978081 90.63189507 C39.61655481 93.32345665 39.61191252 96.0132085 39.59936523 98.70483398 C39.61419952 99.50442032 39.62903381 100.30400665 39.64431763 101.12782288 C39.61473083 103.34983826 39.61473083 103.34983826 39 107 C35.17131257 110.34168776 31.9643751 110.29202206 27 110 C26.9071875 109.071875 26.9071875 109.071875 26.8125 108.125 C26.171081 105.72238859 26.171081 105.72238859 23.4375 104.75 C22.2309375 104.37875 22.2309375 104.37875 21 104 C21 103.34 21 102.68 21 102 C24.40312738 103.05875074 27.01353231 104.00902154 30 106 C31.65549531 106.38499891 33.3222433 106.72793135 35 107 C35.20865464 96.02136967 35.3685062 85.04321185 35.46630955 74.06300163 C35.51325484 68.96413963 35.57690971 63.86663524 35.67895508 58.76855469 C35.77684607 53.84714586 35.83057766 48.92704136 35.85389519 44.00473404 C35.87050795 42.12829168 35.90295186 40.25191974 35.95157051 38.37603378 C36.61016558 28.45377607 36.61016558 28.45377607 33.15841675 19.60876465 C30.82217054 18.01299746 28.6437898 16.98878485 26 16 C24.91074219 15.3615918 23.82148438 14.72318359 22.69921875 14.06542969 C21.70535156 13.52305664 20.71148437 12.98068359 19.6875 12.421875 C18.59308594 11.81859375 17.49867188 11.2153125 16.37109375 10.59375 C14.09306505 9.34782932 11.8144023 8.10306732 9.53515625 6.859375 C8.45105469 6.26125 7.36695313 5.663125 6.25 5.046875 C5.26515625 4.50901367 4.2803125 3.97115234 3.265625 3.41699219 C1 2 1 2 0 0 Z " fill="#A7E81C" transform="translate(151,186)"/>
<path d="M0 0 C-0.81329269 0.32704422 -1.62658539 0.65408844 -2.46452332 0.99104309 C-5.38608718 2.84478762 -5.38608718 2.84478762 -5.60127258 6.58769226 C-5.61578228 8.10620378 -5.60243623 9.62512871 -5.56762695 11.14331055 C-5.56835709 11.97280212 -5.56908722 12.8022937 -5.56983948 13.65692139 C-5.56635377 16.40085063 -5.52744769 19.14308583 -5.48828125 21.88671875 C-5.47895659 23.78814262 -5.47183884 25.6895785 -5.46684265 27.59101868 C-5.44774554 32.59727099 -5.39862133 37.60279875 -5.34332275 42.60876465 C-5.29218877 47.71629026 -5.26934112 52.82393287 -5.24414062 57.93164062 C-5.19050526 67.95474555 -5.1051596 77.97731254 -5 88 C0.59485173 87.35884695 0.59485173 87.35884695 5.67578125 85.15234375 C6.27583984 84.79462891 6.87589844 84.43691406 7.49414062 84.06835938 C8.09419922 83.69517578 8.69425781 83.32199219 9.3125 82.9375 C15.78076923 79 15.78076923 79 18 79 C18 79.66 18 80.32 18 81 C15.69921875 82.69140625 15.69921875 82.69140625 12.6875 84.5625 C11.20830078 85.49255859 11.20830078 85.49255859 9.69921875 86.44140625 C7 88 7 88 4 89 C2.31461399 90.99665314 2.31461399 90.99665314 1 93 C-2.95832823 92.43452454 -5.79560679 91.42494621 -9 89 C-11.14762684 84.90750188 -11.2206869 81.43149854 -11.15112305 76.8581543 C-11.14326782 76.15826385 -11.1354126 75.45837341 -11.12731934 74.73727417 C-11.0988373 72.43265929 -11.05553679 70.12858902 -11.01171875 67.82421875 C-10.98805935 66.21386315 -10.96518846 64.60349578 -10.94306946 62.99311829 C-10.89459393 59.61970723 -10.83925892 56.24650398 -10.77856445 52.87329102 C-10.70123387 48.56632249 -10.63673983 44.25928798 -10.57690716 39.95204449 C-10.5299771 36.62583845 -10.47826686 33.2997209 -10.42493629 29.97361183 C-10.39965723 28.38652879 -10.37534829 26.79942997 -10.3520565 25.21231651 C-10.31822658 22.98478372 -10.278479 20.75743238 -10.23706055 18.5300293 C-10.21548386 17.26603806 -10.19390717 16.00204681 -10.17167664 14.69975281 C-9.6758219 4.01373285 -9.6758219 4.01373285 -7 0 C-3.86650268 -1.04449911 -3.01031744 -0.93423645 0 0 Z " fill="#A7EA17" transform="translate(219,204)"/>
<path d="M0 0 C0 0.66 0 1.32 0 2 C-1.65 2.33 -3.3 2.66 -5 3 C-5 3.66 -5 4.32 -5 5 C-6.65 5.33 -8.3 5.66 -10 6 C-10 6.99 -10 7.98 -10 9 C-11.32 9.33 -12.64 9.66 -14 10 C-14 10.99 -14 11.98 -14 13 C-15.98 13.33 -17.96 13.66 -20 14 C-20 14.66 -20 15.32 -20 16 C-21.32 16.33 -22.64 16.66 -24 17 C-24 17.99 -24 18.98 -24 20 C-24.66 20 -25.32 20 -26 20 C-26 20.66 -26 21.32 -26 22 C-27.485 22.495 -27.485 22.495 -29 23 C-29.66 23.33 -30.32 23.66 -31 24 C-33.125 23.5625 -33.125 23.5625 -35 23 C-35.495 24.485 -35.495 24.485 -36 26 C-37.7421875 27.203125 -37.7421875 27.203125 -39.875 28.25 C-40.57367188 28.60578125 -41.27234375 28.9615625 -41.9921875 29.328125 C-44 30 -44 30 -47 29 C-47.495 30.485 -47.495 30.485 -48 32 C-49.65 32 -51.3 32 -53 32 C-53.24105469 32.62519531 -53.48210937 33.25039062 -53.73046875 33.89453125 C-55.32500184 36.53900304 -56.3902846 36.83784746 -59.3125 37.6875 C-60.11171875 37.9246875 -60.9109375 38.161875 -61.734375 38.40625 C-64.14341529 39.0375847 -66.54050483 39.60330723 -69 40 C-68.67 41.65 -68.34 43.3 -68 45 C-68.6290625 45.15855469 -69.258125 45.31710938 -69.90625 45.48046875 C-75.33120072 46.95925803 -79.60521254 48.78557284 -84.25 51.94140625 C-86.42241946 53.25552606 -88.53241713 53.50648343 -91 54 C-92.68538601 55.99665314 -92.68538601 55.99665314 -94 58 C-94.66 58 -95.32 58 -96 58 C-93.74028467 52.95909658 -90.92382716 50.79007996 -86.07421875 48.25 C-79.90865851 44.96332026 -73.85831179 41.50117873 -67.8125 38 C-66.11963867 37.02160156 -66.11963867 37.02160156 -64.39257812 36.0234375 C-55.94507765 31.1387771 -47.5158778 26.22287968 -39.09057617 21.30004883 C-31.28160218 16.74011605 -23.45696699 12.20778181 -15.625 7.6875 C-14.49449219 7.03458984 -13.36398438 6.38167969 -12.19921875 5.70898438 C-11.15636719 5.10763672 -10.11351562 4.50628906 -9.0390625 3.88671875 C-8.11303223 3.35264404 -7.18700195 2.81856934 -6.23291016 2.26831055 C-2.23946102 0 -2.23946102 0 0 0 Z " fill="#A4E11E" transform="translate(185,80)"/>
<path d="M0 0 C20.29891164 9.52165443 20.29891164 9.52165443 25 17 C25.36914349 19.42874527 25.36914349 19.42874527 25.36076355 22.1885376 C25.36488754 23.23739136 25.36901154 24.28624512 25.3732605 25.36688232 C25.36247467 26.5119928 25.35168884 27.65710327 25.34057617 28.83691406 C25.34123329 30.65195435 25.34123329 30.65195435 25.34190369 32.50366211 C25.34017235 35.81758939 25.32513249 39.13095529 25.30418181 42.44478321 C25.2854216 45.90944068 25.2836651 49.37410572 25.28010559 52.83880615 C25.27078317 59.39778215 25.24616682 65.95660804 25.21605712 72.51551795 C25.18251917 79.98340389 25.16602864 87.45129701 25.15097082 94.91923952 C25.11961736 110.27957993 25.06685314 125.6397706 25 141 C24.34 141 23.68 141 23 141 C22.99576806 140.38339571 22.99153612 139.76679142 22.98717594 139.13150215 C22.8839662 124.14277446 22.77534308 109.15409669 22.66066074 94.16545296 C22.6053329 86.91712187 22.55185163 79.66878587 22.50268555 72.42041016 C22.45983833 66.10428662 22.41355899 59.78819926 22.36312145 53.47213161 C22.33652483 50.12642291 22.31167188 46.78072137 22.29092598 43.43497086 C22.26693072 39.70415469 22.23686951 35.97343462 22.20532227 32.24267578 C22.19668907 30.57032867 22.19668907 30.57032867 22.18788147 28.86419678 C22.17809265 27.85174896 22.16830383 26.83930115 22.15821838 25.7961731 C22.15176583 24.91309542 22.14531328 24.03001774 22.1386652 23.12018013 C22.13404439 20.94484956 22.13404439 20.94484956 21 19 C21.66 19 22.32 19 23 19 C22.67 17.68 22.34 16.36 22 15 C19.525 14.505 19.525 14.505 17 14 C17 13.34 17 12.68 17 12 C16.195625 11.731875 15.39125 11.46375 14.5625 11.1875 C13.716875 10.795625 12.87125 10.40375 12 10 C11.67 9.01 11.34 8.02 11 7 C9.35 6.67 7.7 6.34 6 6 C6 5.34 6 4.68 6 4 C4.68 4 3.36 4 2 4 C2 3.34 2 2.68 2 2 C1.34 2 0.68 2 0 2 C0 1.34 0 0.68 0 0 Z " fill="#A1D02B" transform="translate(287,121)"/>
<path d="M0 0 C0.33 0 0.66 0 1 0 C1.77522197 3.43765765 2.1277611 6.61547683 2.13803101 10.13674927 C2.14348434 11.1489856 2.14893768 12.16122192 2.15455627 13.20413208 C2.1555986 14.30353119 2.15664093 15.4029303 2.15771484 16.53564453 C2.16279556 17.70198425 2.16787628 18.86832397 2.17311096 20.07000732 C2.1838033 22.60015235 2.19242792 25.13030677 2.19923019 27.66046524 C2.21101975 31.66071931 2.23018808 35.66089598 2.25234985 39.66110229 C2.31418808 51.03363233 2.36835146 62.40615556 2.40136719 73.77880859 C2.41969617 80.06499839 2.44860284 86.35104615 2.4893719 92.63713157 C2.51045698 95.96217885 2.52421703 99.28700742 2.52817917 102.6121254 C2.53306206 106.31601229 2.55615063 110.01936528 2.58349609 113.72314453 C2.57898689 115.37831589 2.57898689 115.37831589 2.5743866 117.06692505 C2.58547958 118.07352173 2.59657257 119.08011841 2.60800171 120.11721802 C2.61131186 120.99287981 2.614622 121.8685416 2.61803246 122.7707386 C3.08624828 125.50336727 3.82847051 126.3252574 6 128 C7.546875 128.7425 7.546875 128.7425 9.125 129.5 C12 131 12 131 13 134 C7.79010681 132.63550416 4.87161418 130.60150156 1 127 C-0.25133481 124.49733038 -0.12306118 122.81506224 -0.12025452 120.01400757 C-0.12162918 118.95948898 -0.12300385 117.9049704 -0.12442017 116.8184967 C-0.12082489 115.65684494 -0.11722961 114.49519318 -0.11352539 113.29833984 C-0.11367142 112.07885147 -0.11381744 110.8593631 -0.1139679 109.60292053 C-0.11338955 106.25394819 -0.10836546 102.90503707 -0.10139394 99.55607557 C-0.09515348 96.0580256 -0.09455605 92.55997485 -0.09336853 89.06192017 C-0.09025726 82.43565139 -0.08204662 75.80939906 -0.07201904 69.18313754 C-0.06085157 61.64031071 -0.05534585 54.0974831 -0.05032361 46.55465007 C-0.03986384 31.03642384 -0.02226834 15.51821404 0 0 Z " fill="#99CA21" transform="translate(88,138)"/>
<path d="M0 0 C-2.43822357 1.42229708 -4.87645143 2.8445868 -7.31469727 4.2668457 C-9.46369368 5.52046812 -11.61261781 6.77421445 -13.76147461 8.02807617 C-19.30937965 11.26505964 -24.85830656 14.50025486 -30.41015625 17.73046875 C-32.46098674 18.9243946 -34.51176892 20.11840342 -36.5625 21.3125 C-37.55781738 21.89161133 -38.55313477 22.47072266 -39.57861328 23.06738281 C-46.00041169 26.81120469 -52.39259475 30.6000643 -58.71313477 34.51293945 C-62.7841266 37 -62.7841266 37 -65 37 C-65.67154684 39.28341743 -65.67154684 39.28341743 -65 42 C-63.11266664 43.50898682 -61.16520883 44.63709976 -59.04296875 45.7890625 C-57.01451062 46.99139906 -55.58612838 48.26876839 -54 50 C-55.96035175 49.55037804 -57.91824309 49.09001752 -59.875 48.625 C-60.96554688 48.36976563 -62.05609375 48.11453125 -63.1796875 47.8515625 C-66 47 -66 47 -68 45 C-68.125 41.875 -68.125 41.875 -68 39 C-69.32 39 -70.64 39 -72 39 C-72.495 37.515 -72.495 37.515 -73 36 C-71.88625 35.8453125 -71.88625 35.8453125 -70.75 35.6875 C-67.96529916 35.19596144 -67.96529916 35.19596144 -66.0625 33.4375 C-63.30270285 31.51400502 -61.28644085 31.77592449 -58 32 C-57.731875 31.38125 -57.46375 30.7625 -57.1875 30.125 C-56 28 -56 28 -53 26 C-51.68 26 -50.36 26 -49 26 C-49 24.68 -49 23.36 -49 22 C-47.88625 21.87625 -46.7725 21.7525 -45.625 21.625 C-41.96896323 21.3534187 -41.96896323 21.3534187 -40 19 C-38.33333333 18.33333333 -36.66666667 17.66666667 -35 17 C-31.71753551 15.28802498 -28.63831489 13.63831489 -26 11 C-25.01 11 -24.02 11 -23 11 C-23 10.01 -23 9.02 -23 8 C-21.84371094 7.63648437 -21.84371094 7.63648437 -20.6640625 7.265625 C-19.66117188 6.93046875 -18.65828125 6.5953125 -17.625 6.25 C-16.62726563 5.92515625 -15.62953125 5.6003125 -14.6015625 5.265625 C-11.62141958 3.81582574 -11.27198613 2.933968 -10 0 C-6.26378474 -1.05588692 -3.68208817 -1.0440553 0 0 Z " fill="#A9D92C" transform="translate(193,101)"/>
<path d="M0 0 C0.99 0.495 0.99 0.495 2 1 C1.9792189 1.95720444 1.95843781 2.91440887 1.93702698 3.90061951 C1.75048573 12.94829482 1.64377316 21.9939141 1.61396885 31.04350185 C1.59611338 35.69592877 1.55075734 40.34460767 1.44116211 44.99584961 C1.33629237 49.49045308 1.3054814 53.98018303 1.32465935 58.47590828 C1.31919697 60.18527764 1.28763473 61.8947804 1.22885323 63.60314751 C0.88647407 71.5037955 0.88647407 71.5037955 3 79 C7.12241041 83.34820242 12.54565272 85.73502043 18 88 C16.515 88.495 16.515 88.495 15 89 C14.505 89.99 14.505 89.99 14 91 C11.69 90.01 9.38 89.02 7 88 C7 87.34 7 86.68 7 86 C5.68 85.67 4.36 85.34 3 85 C3 84.34 3 83.68 3 83 C2.51202438 82.62223923 2.02404877 82.24447845 1.52128601 81.85527039 C-0.83806153 78.97794976 -0.39260089 75.87186194 -0.34057617 72.31567383 C-0.34101425 71.5349501 -0.34145233 70.75422638 -0.34190369 69.94984436 C-0.33981324 67.36865247 -0.3164706 64.7881097 -0.29296875 62.20703125 C-0.28737369 60.41770279 -0.28310317 58.62836973 -0.28010559 56.83903503 C-0.26864968 52.12890948 -0.23917611 47.41906134 -0.20599365 42.70904541 C-0.17530883 37.90307366 -0.16160365 33.09705709 -0.14648438 28.29101562 C-0.1143071 18.86055518 -0.06310175 9.43030066 0 0 Z " fill="#B1D04E" transform="translate(109,173)"/>
<path d="M0 0 C0.66 0.33 1.32 0.66 2 1 C0.3603125 1.94746094 0.3603125 1.94746094 -1.3125 2.9140625 C-2.87505747 3.81760896 -4.43755191 4.72126441 -6 5.625 C-6.83853516 6.1099292 -7.67707031 6.5948584 -8.54101562 7.09448242 C-13.44030504 9.93051347 -18.33325983 12.7769752 -23.21875 15.63671875 C-24.78496094 16.55300049 -24.78496094 16.55300049 -26.3828125 17.48779297 C-28.40965778 18.67424673 -30.43574216 19.86200162 -32.4609375 21.05126953 C-51.17043234 32 -51.17043234 32 -54 32 C-53.34 30.35 -52.68 28.7 -52 27 C-51.01 27 -50.02 27 -49 27 C-49 26.01 -49 25.02 -49 24 C-48.34 24 -47.68 24 -47 24 C-46.67 23.01 -46.34 22.02 -46 21 C-43.67328146 20.31060191 -41.33932406 19.64533078 -39 19 C-38.53722656 18.51917969 -38.07445312 18.03835937 -37.59765625 17.54296875 C-35.50465823 15.52161369 -33.6020077 15.07327483 -30.8125 14.3125 C-29.46091797 13.93544922 -29.46091797 13.93544922 -28.08203125 13.55078125 C-27.39496094 13.36902344 -26.70789063 13.18726563 -26 13 C-26 12.67 -26 12.34 -26 12 C-24.35 12 -22.7 12 -21 12 C-20.67 11.01 -20.34 10.02 -20 9 C-16.52053509 5.41509676 -13.98611252 4.7059134 -9.0625 4.3515625 C-6.6946151 3.94794575 -5.16556129 3.12484379 -3.125 1.875 C-2.09375 1.25625 -1.0625 0.6375 0 0 Z " fill="#A7E61A" transform="translate(273,171)"/>
<path d="M0 0 C0.66 0 1.32 0 2 0 C3.5654667 3.13093339 3.14727324 6.46908146 3.14526367 9.90625 C3.14862228 10.72262939 3.1519809 11.53900879 3.15544128 12.38012695 C3.16496366 15.08676665 3.16689492 17.79334458 3.16796875 20.5 C3.17118001 22.37565131 3.17454398 24.25130236 3.17805481 26.12695312 C3.184049 30.06120383 3.18589437 33.99543255 3.18530273 37.9296875 C3.185201 42.98073003 3.19886382 48.03163235 3.21607494 53.0826416 C3.22717043 56.95671237 3.22922271 60.83074895 3.22869301 64.70483398 C3.22987643 66.56763188 3.23431831 68.43043056 3.24202538 70.29321289 C3.25177766 72.89349316 3.24896642 75.49346521 3.24291992 78.09375 C3.24853943 78.86887939 3.25415894 79.64400879 3.25994873 80.44262695 C3.22831676 85.77168324 3.22831676 85.77168324 1 88 C-1.1640625 88.1953125 -1.1640625 88.1953125 -3.625 88.125 C-4.44226563 88.10695313 -5.25953125 88.08890625 -6.1015625 88.0703125 C-6.72804687 88.04710937 -7.35453125 88.02390625 -8 88 C-8.33 87.34 -8.66 86.68 -9 86 C-10.64363134 85.27840576 -12.31050386 84.60648579 -14 84 C-14 83.34 -14 82.68 -14 82 C-10.59687262 83.05875074 -7.98646769 84.00902154 -5 86 C-3.35 86.33 -1.7 86.66 0 87 C0 58.29 0 29.58 0 0 Z " fill="#87B22A" transform="translate(186,206)"/>
<path d="M0 0 C-1.21993904 0.49056633 -1.21993904 0.49056633 -2.46452332 0.99104309 C-5.38608718 2.84478762 -5.38608718 2.84478762 -5.60127258 6.58769226 C-5.61578228 8.10620378 -5.60243623 9.62512871 -5.56762695 11.14331055 C-5.56835709 11.97280212 -5.56908722 12.8022937 -5.56983948 13.65692139 C-5.56635377 16.40085063 -5.52744769 19.14308583 -5.48828125 21.88671875 C-5.47895659 23.78814262 -5.47183884 25.6895785 -5.46684265 27.59101868 C-5.44774554 32.59727099 -5.39862133 37.60279875 -5.34332275 42.60876465 C-5.29218877 47.71629026 -5.26934112 52.82393287 -5.24414062 57.93164062 C-5.19050526 67.95474555 -5.1051596 77.97731254 -5 88 C-2.69 88 -0.38 88 2 88 C1.505 88.99 1.505 88.99 1 90 C-2.375 90.1875 -2.375 90.1875 -6 90 C-8.51547628 86.22678557 -8.27435478 83.25660557 -8.24291992 78.88842773 C-8.24481827 78.06214874 -8.24671661 77.23586975 -8.24867249 76.384552 C-8.25238004 73.65080302 -8.24167701 70.91731915 -8.23046875 68.18359375 C-8.2292769 66.28695202 -8.2288238 64.39030969 -8.2290802 62.4936676 C-8.22751541 58.51828315 -8.2192255 54.54298876 -8.20581055 50.56762695 C-8.18880918 45.46395922 -8.18499654 40.36039039 -8.18575573 35.25669765 C-8.18548423 31.34059194 -8.1800065 27.42450799 -8.17275429 23.5084095 C-8.16956542 21.6260806 -8.16759971 19.74374923 -8.16686058 17.86141777 C-8.16469998 15.2349614 -8.15596214 12.60861138 -8.14526367 9.98217773 C-8.14571686 9.19926865 -8.14617004 8.41635956 -8.14663696 7.60972595 C-8.1144784 2.2289568 -8.1144784 2.2289568 -7 0 C-3.86650268 -1.04449911 -3.01031744 -0.93423645 0 0 Z " fill="#96B934" transform="translate(219,204)"/>
<path d="M0 0 C2.44361992 1.1128775 4.59373489 2.24465638 6.875 3.625 C7.53757813 4.01163818 8.20015625 4.39827637 8.8828125 4.79663086 C10.38830862 5.67681131 11.89036798 6.56288644 13.38964844 7.45361328 C16.37791096 9.22387655 19.37949398 10.97024939 22.3828125 12.71484375 C28.26210271 16.13150422 34.13327184 19.56182101 40 23 C38 24 38 24 35.1875 23.1875 C32.44021658 22.16400226 29.71082841 21.11622346 27 20 C27 19.34 27 18.68 27 18 C25.02 17.67 23.04 17.34 21 17 C21 16.34 21 15.68 21 15 C18.51482296 13.70770794 16.02329749 12.58875684 13.4375 11.5 C10 10 10 10 7 8 C4.66989091 7.32215008 2.33640176 6.65583207 0 6 C-1.35350594 5.37530495 -2.69934483 4.7283669 -4 4 C-4.99 4.66 -5.98 5.32 -7 6 C-9.6875 6.125 -9.6875 6.125 -12 6 C-12 6.66 -12 7.32 -12 8 C-13.98 8 -15.96 8 -18 8 C-15.778996 5.59567503 -13.52249547 3.94298962 -10.6875 2.3125 C-9.94886719 1.87550781 -9.21023437 1.43851562 -8.44921875 0.98828125 C-5.3342347 -0.26864214 -3.34436408 -0.39565951 0 0 Z " fill="#AAE817" transform="translate(203,72)"/>
<path d="M0 0 C2.02109202 2.02109202 1.16761167 6.17075277 1.17700195 8.94458008 C1.18357315 9.777108 1.19014435 10.60963593 1.19691467 11.46739197 C1.21669735 14.23477253 1.22832142 17.00209871 1.23828125 19.76953125 C1.24235678 20.71242193 1.2464323 21.65531261 1.25063133 22.62677574 C1.27151355 27.61747394 1.28580577 32.60814447 1.29516602 37.59887695 C1.30623344 42.76086693 1.34063101 47.92242618 1.38033772 53.0842638 C1.40645274 57.04677648 1.41485331 61.00918579 1.41844749 64.97177696 C1.42332692 66.87481278 1.43497928 68.77784358 1.45348549 70.68079567 C1.47776798 73.34329181 1.47693203 76.00466395 1.4699707 78.66723633 C1.48278076 79.45544769 1.49559082 80.24365906 1.50878906 81.05575562 C1.474578 84.64087144 1.28722602 86.61980209 -0.90437317 89.52079773 C-3 91 -3 91 -5 91 C-5 91.66 -5 92.32 -5 93 C-8.465 93.495 -8.465 93.495 -12 94 C-12 94.66 -12 95.32 -12 96 C-12.66 96 -13.32 96 -14 96 C-14 96.66 -14 97.32 -14 98 C-19.35006016 101.28767869 -23.68368172 103.59683075 -30 104 C-27.51218995 101.21845737 -24.75632022 99.55925044 -21.52734375 97.71484375 C-20.46322266 97.10189453 -19.39910156 96.48894531 -18.30273438 95.85742188 C-16.63694336 94.90706055 -16.63694336 94.90706055 -14.9375 93.9375 C-12.73666307 92.678606 -10.53736448 91.4170176 -8.33984375 90.15234375 C-7.36394287 89.59538818 -6.38804199 89.03843262 -5.38256836 88.46459961 C-2.92800185 87.08273077 -2.92800185 87.08273077 -1 85 C-0.81204389 82.34955896 -0.74816139 79.80449186 -0.77294922 77.15380859 C-0.77265717 76.34397018 -0.77236511 75.53413177 -0.77206421 74.69975281 C-0.7734605 72.01587304 -0.78903565 69.33226893 -0.8046875 66.6484375 C-0.80841657 64.79041699 -0.81126404 62.93239452 -0.81326294 61.07437134 C-0.82090776 56.17853386 -0.84056351 51.28281461 -0.8626709 46.38702393 C-0.88311107 41.39344889 -0.89226074 36.39985479 -0.90234375 31.40625 C-0.92380862 21.60411466 -0.95795478 11.80206715 -1 2 C-1.99 1.67 -2.98 1.34 -4 1 C-4.99 0.67 -5.98 0.34 -7 0 C-4.31633121 -1.3418344 -2.84719317 -0.73004953 0 0 Z " fill="#85A53B" transform="translate(289,166)"/>
<path d="M0 0 C4.59971438 1.3536697 8.30573069 3.22686332 12.375 5.75 C13.69303351 6.55758613 15.01212236 7.36345137 16.33203125 8.16796875 C17.4295874 8.83771729 17.4295874 8.83771729 18.54931641 9.52099609 C24.39198649 13.04708649 30.3002865 16.4638995 36.20654297 19.88208008 C40.62813898 22.44141626 45.04003473 25.00055274 49.37109375 27.7109375 C49.99814209 28.09499756 50.62519043 28.47905762 51.27124023 28.87475586 C52.85619801 29.84909864 54.42877495 30.84350703 56 31.83984375 C60.10844653 33.42865705 62.70551667 32.81909865 67 32 C67 32.66 67 33.32 67 34 C63.98509443 35.00496852 61.95818308 35.10335303 58.8125 35.0625 C57.91144531 35.05347656 57.01039063 35.04445312 56.08203125 35.03515625 C55.39496094 35.02355469 54.70789063 35.01195312 54 35 C53.67 34.01 53.34 33.02 53 32 C52.05125 31.855625 51.1025 31.71125 50.125 31.5625 C47 31 47 31 45 30 C45 29.34 45 28.68 45 28 C44.2575 27.731875 43.515 27.46375 42.75 27.1875 C40.09679681 26.04179862 38.28806162 24.73338001 36 23 C34.989375 22.505 33.97875 22.01 32.9375 21.5 C30.28331765 20.14467284 29.00345705 19.09056387 27 17 C23.11251747 14.29054248 18.90292741 12.75184611 14.515625 11.05078125 C11.14308233 9.64206389 8.11932934 7.89872221 5 6 C5 5.01 5 4.02 5 3 C2.525 2.01 2.525 2.01 0 1 C0 0.67 0 0.34 0 0 Z " fill="#A3D038" transform="translate(139,151)"/>
<path d="M0 0 C6.625 -0.125 6.625 -0.125 10 1 C10 1.99 10 2.98 10 4 C7.69 3.67 5.38 3.34 3 3 C0.1283402 7.8185473 -0.41905678 11.81005793 -0.34057617 17.30029297 C-0.34101425 18.11071548 -0.34145233 18.921138 -0.34190369 19.75611877 C-0.33982395 22.41839203 -0.3165318 25.08002509 -0.29296875 27.7421875 C-0.28736989 29.5944891 -0.28310116 31.44679515 -0.28010559 33.29910278 C-0.26867966 38.16207251 -0.23923188 43.02477124 -0.20599365 47.88763428 C-0.17524418 52.85473973 -0.16158984 57.82188919 -0.14648438 62.7890625 C-0.11436 72.5261604 -0.06319092 82.26305762 0 92 C-1.32 92 -2.64 92 -4 92 C-3.83635956 91.00899796 -3.67271912 90.01799591 -3.50411987 88.9969635 C-2.93788217 85.01069641 -2.88664633 81.06863012 -2.93408203 77.04858398 C-2.93875488 76.28666748 -2.94342773 75.52475098 -2.94824219 74.73974609 C-2.95868504 73.09741688 -2.97132731 71.45510044 -2.98596573 69.81280327 C-3.00811622 67.21041012 -3.02211149 64.60809112 -3.03366089 62.00563049 C-3.06714029 54.61050344 -3.10894954 47.21549999 -3.17138672 39.82055664 C-3.20908653 35.28673171 -3.23207072 30.75303071 -3.24569321 26.21907234 C-3.25372969 24.49631341 -3.26731341 22.77357085 -3.28662491 21.05090141 C-3.31318058 18.64111962 -3.3210035 16.23193173 -3.32470703 13.82202148 C-3.3370639 13.11588211 -3.34942078 12.40974274 -3.3621521 11.6822052 C-3.34347738 7.06133505 -2.33767552 3.96713472 0 0 Z " fill="#ACEC1A" transform="translate(110,164)"/>
<path d="M0 0 C0.66 0 1.32 0 2 0 C1.67 38.28 1.34 76.56 1 116 C1.99 116.33 2.98 116.66 4 117 C3.01 117.99 3.01 117.99 2 119 C2.66 119.33 3.32 119.66 4 120 C4.625 122.5625 4.625 122.5625 5 125 C1.125 123.25 1.125 123.25 0 121 C-0.09270995 119.39079091 -0.12192313 117.77773966 -0.12025452 116.16586304 C-0.12231651 114.63457008 -0.12231651 114.63457008 -0.12442017 113.07234192 C-0.12082489 111.94809311 -0.11722961 110.8238443 -0.11352539 109.66552734 C-0.11367142 108.48505325 -0.11381744 107.30457916 -0.1139679 106.08833313 C-0.11338959 102.84680225 -0.10836583 99.60531425 -0.10139394 96.36379194 C-0.09515306 92.97785089 -0.09455602 89.59190905 -0.09336853 86.20596313 C-0.09025739 79.7921899 -0.08204691 73.37843366 -0.07201904 66.96466792 C-0.06085119 59.66367453 -0.05534576 52.36268035 -0.05032361 45.06168056 C-0.03986412 30.04111089 -0.02226886 15.02055714 0 0 Z " fill="#A6E810" transform="translate(90,142)"/>
<path d="M0 0 C2.02045442 0.60183749 4.02111039 1.27306096 6 2 C7.43060128 4.86120256 7.38692581 6.84010585 7 10 C4.75 11.6875 4.75 11.6875 2 13 C0.66209359 13.99387334 -0.67218122 14.9926892 -2 16 C-2.99 16.495 -2.99 16.495 -4 17 C-4.144375 17.66 -4.28875 18.32 -4.4375 19 C-4.7159375 19.99 -4.7159375 19.99 -5 21 C-8 22 -8 22 -12 22 C-15.44659823 22.86164956 -17.50588096 23.49043974 -20 26.0625 C-22.55860034 28.54114407 -24.51888861 28.68353533 -28 29 C-28 29.66 -28 30.32 -28 31 C-29.125 32.625 -29.125 32.625 -31 34 C-34.1875 34.1875 -34.1875 34.1875 -37 34 C-34.78395637 31.59028312 -32.56193381 30.03047988 -29.7109375 28.43359375 C-28.43331543 27.71260498 -28.43331543 27.71260498 -27.12988281 26.97705078 C-26.22077148 26.46899902 -25.31166016 25.96094727 -24.375 25.4375 C-22.48165291 24.36088444 -20.58842559 23.28405823 -18.6953125 22.20703125 C-15.10178168 20.17402559 -11.49313515 18.17372366 -7.8671875 16.19921875 C-6.32797979 15.34140633 -4.78890952 14.48334725 -3.25 13.625 C-2.52989746 13.24529053 -1.80979492 12.86558105 -1.06787109 12.47436523 C2.38355377 10.52674524 3.82662738 9.59827765 4.953125 5.7109375 C4.96859375 4.81632813 4.9840625 3.92171875 5 3 C2.525 2.01 2.525 2.01 0 1 C0 0.67 0 0.34 0 0 Z " fill="#A1CC38" transform="translate(267,135)"/>
<path d="M0 0 C14.63029505 6.7595667 28.38377768 15.41794439 42 24 C41.01 24.495 41.01 24.495 40 25 C26.52941176 20.50980392 26.52941176 20.50980392 23 16 C23 15.34 23 14.68 23 14 C20.69 13.67 18.38 13.34 16 13 C16 12.01 16 11.02 16 10 C14.68 10.33 13.36 10.66 12 11 C12 10.34 12 9.68 12 9 C10.35 8.67 8.7 8.34 7 8 C6.67 7.01 6.34 6.02 6 5 C4.35 4.67 2.7 4.34 1 4 C0.67 2.68 0.34 1.36 0 0 Z " fill="#A7D633" transform="translate(244,96)"/>
<path d="M0 0 C2.475 0.495 2.475 0.495 5 1 C5 1.66 5 2.32 5 3 C6.155 3.226875 7.31 3.45375 8.5 3.6875 C11.92218966 4.50519134 14.3102581 5.7386709 17.1875 7.75 C19.09345678 9.10357916 19.09345678 9.10357916 21 10 C23.95976672 9.5048792 23.95976672 9.5048792 26 8 C26.33 8.66 26.66 9.32 27 10 C26.67 10.66 26.34 11.32 26 12 C27.32 11.67 28.64 11.34 30 11 C30.33 11.99 30.66 12.98 31 14 C30.67 14.66 30.34 15.32 30 16 C31.65 16.33 33.3 16.66 35 17 C35.495 18.98 35.495 18.98 36 21 C31.22554908 19.27589272 26.91485579 16.84841668 22.5 14.375 C21.31591553 13.71383179 21.31591553 13.71383179 20.10791016 13.03930664 C6.44939447 5.36416623 6.44939447 5.36416623 0 1 C0 0.67 0 0.34 0 0 Z " fill="#A6EB14" transform="translate(129,288)"/>
<path d="M0 0 C0 0.66 0 1.32 0 2 C0.61488281 2.18175781 1.22976562 2.36351563 1.86328125 2.55078125 C2.67152344 2.80214844 3.47976562 3.05351563 4.3125 3.3125 C5.11300781 3.55613281 5.91351563 3.79976562 6.73828125 4.05078125 C9.12757893 5.05354349 10.39589507 5.98059282 12 8 C12 8.66 12 9.32 12 10 C12.66 10 13.32 10 14 10 C14.495 11.485 14.495 11.485 15 13 C11.16540256 11.58433662 7.81592702 9.79073276 4.32421875 7.671875 C3.24849609 7.03765625 2.17277344 6.4034375 1.06445312 5.75 C-1.18508621 4.41771066 -3.4248084 3.06870298 -5.65429688 1.703125 C-12.29782366 -2.45260392 -12.29782366 -2.45260392 -19.79296875 -2.421875 C-20.85128906 -1.95265625 -21.90960938 -1.4834375 -23 -1 C-23 -1.99 -23 -2.98 -23 -4 C-14.73008971 -6.48097309 -7.20313494 -4.13513302 0 0 Z " fill="#ABE025" transform="translate(216,101)"/>
<path d="M0 0 C7.75 0.75 7.75 0.75 10 3 C10.804375 3.144375 11.60875 3.28875 12.4375 3.4375 C15.38268195 4.08400335 16.00489149 4.83863245 18 7 C20.47933197 8.77148372 20.47933197 8.77148372 23 10 C23.66 9.67 24.32 9.34 25 9 C25 10.32 25 11.64 25 13 C25.804375 13.268125 26.60875 13.53625 27.4375 13.8125 C28.283125 14.204375 29.12875 14.59625 30 15 C30.33 15.99 30.66 16.98 31 18 C26.1100138 16.24587669 21.70415687 13.71996079 17.1875 11.1875 C16.41857422 10.76146484 15.64964844 10.33542969 14.85742188 9.89648438 C4.0787035 3.88405159 4.0787035 3.88405159 0 1 C0 0.67 0 0.34 0 0 Z " fill="#A0D62C" transform="translate(231,114)"/>
<path d="M0 0 C0.5775 0.226875 1.155 0.45375 1.75 0.6875 C1.42 1.6775 1.09 2.6675 0.75 3.6875 C-1.3125 4.375 -1.3125 4.375 -3.25 4.6875 C-3.92154684 6.97091743 -3.92154684 6.97091743 -3.25 9.6875 C-1.36266664 11.19648682 0.58479117 12.32459976 2.70703125 13.4765625 C4.73548938 14.67889906 6.16387162 15.95626839 7.75 17.6875 C5.78964825 17.23787804 3.83175691 16.77751752 1.875 16.3125 C0.78445312 16.05726563 -0.30609375 15.80203125 -1.4296875 15.5390625 C-4.25 14.6875 -4.25 14.6875 -6.25 12.6875 C-6.375 9.5625 -6.375 9.5625 -6.25 6.6875 C-7.57 6.6875 -8.89 6.6875 -10.25 6.6875 C-10.58 5.6975 -10.91 4.7075 -11.25 3.6875 C-10.5075 3.584375 -9.765 3.48125 -9 3.375 C-6.19653941 2.87374008 -6.19653941 2.87374008 -4.1875 1.0625 C-2.25 -0.3125 -2.25 -0.3125 0 0 Z " fill="#9FD823" transform="translate(131.25,133.3125)"/>
<path d="M0 0 C0.66 0.99 1.32 1.98 2 3 C0.35 3.66 -1.3 4.32 -3 5 C-3 5.66 -3 6.32 -3 7 C-5.31 7.33 -7.62 7.66 -10 8 C-10 8.66 -10 9.32 -10 10 C-10.66 10 -11.32 10 -12 10 C-12 10.66 -12 11.32 -12 12 C-17.35006016 15.28767869 -21.68368172 17.59683075 -28 18 C-25.50382577 15.20854533 -22.72840847 13.53721365 -19.4921875 11.6796875 C-18.42355469 11.06222656 -17.35492188 10.44476563 -16.25390625 9.80859375 C-15.13886719 9.17050781 -14.02382813 8.53242188 -12.875 7.875 C-10.66332556 6.60284283 -8.45234858 5.32947207 -6.2421875 4.0546875 C-4.77048096 3.21139893 -4.77048096 3.21139893 -3.26904297 2.35107422 C-1.10870474 1.19063645 -1.10870474 1.19063645 0 0 Z " fill="#A1CE36" transform="translate(287,252)"/>
<path d="M0 0 C5.69081334 2.17085457 10.9104073 5.08999061 16.25 8 C17.77753906 8.81984375 17.77753906 8.81984375 19.3359375 9.65625 C20.30273438 10.1821875 21.26953125 10.708125 22.265625 11.25 C23.15024414 11.72953125 24.03486328 12.2090625 24.94628906 12.703125 C27 14 27 14 28 16 C21.25 15.25 21.25 15.25 19 13 C16.93125966 12.3574765 16.93125966 12.3574765 15 12 C15 11.34 15 10.68 15 10 C12.03 9.505 12.03 9.505 9 9 C9 8.34 9 7.68 9 7 C8.443125 6.731875 7.88625 6.46375 7.3125 6.1875 C4.78774666 4.89100504 2.36285516 3.57523677 0 2 C0 1.34 0 0.68 0 0 Z " fill="#A6E222" transform="translate(215,80)"/>
<path d="M0 0 C5.73669686 0.60151773 10.1123157 3.88861354 14.85351562 6.9375 C20.06156208 10.06731165 23.05958752 10.31713513 29 9 C29 9.66 29 10.32 29 11 C25.98509443 12.00496852 23.95818308 12.10335303 20.8125 12.0625 C19.91144531 12.05347656 19.01039063 12.04445312 18.08203125 12.03515625 C17.39496094 12.02355469 16.70789063 12.01195312 16 12 C15.67 11.01 15.34 10.02 15 9 C14.05125 8.855625 13.1025 8.71125 12.125 8.5625 C9 8 9 8 7 7 C7 6.34 7 5.68 7 5 C6.21625 4.731875 5.4325 4.46375 4.625 4.1875 C2 3 2 3 0 0 Z " fill="#A9D52C" transform="translate(177,174)"/>
<path d="M0 0 C0.66 0.33 1.32 0.66 2 1 C1.45061768 1.31751221 0.90123535 1.63502441 0.33520508 1.9621582 C-2.17260712 3.4118508 -4.6800565 4.8621698 -7.1875 6.3125 C-8.05181641 6.81201172 -8.91613281 7.31152344 -9.80664062 7.82617188 C-10.64775391 8.31279297 -11.48886719 8.79941406 -12.35546875 9.30078125 C-13.16677246 9.7695166 -13.97807617 10.23825195 -14.81396484 10.72119141 C-16.5545376 11.73940897 -18.27513628 12.79175129 -19.98828125 13.85546875 C-22 15 -22 15 -24 15 C-24 14.34 -24 13.68 -24 13 C-23.01 13 -22.02 13 -21 13 C-20.9071875 12.13375 -20.9071875 12.13375 -20.8125 11.25 C-19.61102111 7.92282768 -17.99430712 6.8475512 -15 5 C-13.02543535 4.74521746 -11.04829817 4.49447979 -9.0625 4.3515625 C-6.6946151 3.94794575 -5.16556129 3.12484379 -3.125 1.875 C-2.09375 1.25625 -1.0625 0.6375 0 0 Z " fill="#A0D02B" transform="translate(273,171)"/>
<path d="M0 0 C2.97 0 5.94 0 9 0 C8.67 0.66 8.34 1.32 8 2 C6.02 2 4.04 2 2 2 C2 2.66 2 3.32 2 4 C-2.88115541 7.57951397 -9.89195126 11 -16 11 C-16 10.34 -16 9.68 -16 9 C-15.01 8.34 -14.02 7.68 -13 7 C-13 6.67 -13 6.34 -13 6 C-11.58398286 5.51891725 -10.16715563 5.04021859 -8.75 4.5625 C-7.96109375 4.29566406 -7.1721875 4.02882812 -6.359375 3.75390625 C-4.25178012 3.08045292 -2.15246027 2.50849405 0 2 C0 1.34 0 0.68 0 0 Z " fill="#AAD830" transform="translate(280,164)"/>
<path d="M0 0 C3.375 0.25 3.375 0.25 7 1 C7.6837045 2.32467746 8.34964186 3.65863633 9 5 C11.30657014 5.75407101 13.645752 6.411438 16 7 C18.01526169 7.96887581 20.01833966 8.9641321 22 10 C22.99 10.33 23.98 10.66 25 11 C25 11.66 25 12.32 25 13 C25.66 13 26.32 13 27 13 C27.33 13.99 27.66 14.98 28 16 C22.69429025 13.96698752 17.84513036 11.29714131 12.875 8.5625 C11.96878906 8.07201172 11.06257813 7.58152344 10.12890625 7.07617188 C9.25878906 6.59857422 8.38867188 6.12097656 7.4921875 5.62890625 C6.70183105 5.19650635 5.91147461 4.76410645 5.09716797 4.31860352 C3.08744045 3.05497856 1.5947824 1.74710743 0 0 Z " fill="#A8D741" transform="translate(101,272)"/>
<path d="M0 0 C0.66 0.33 1.32 0.66 2 1 C0.7934375 1.37125 0.7934375 1.37125 -0.4375 1.75 C-1.283125 2.1625 -2.12875 2.575 -3 3 C-3.165 3.66 -3.33 4.32 -3.5 5 C-3.665 5.66 -3.83 6.32 -4 7 C-6.4375 8.125 -6.4375 8.125 -9 9 C-9.66 9.66 -10.32 10.32 -11 11 C-11.66 10.67 -12.32 10.34 -13 10 C-13 11.32 -13 12.64 -13 14 C-13.66 14 -14.32 14 -15 14 C-15.33 14.66 -15.66 15.32 -16 16 C-16.66 15.01 -17.32 14.02 -18 13 C-18.66 12.67 -19.32 12.34 -20 12 C-16.71619398 9.96617319 -13.42178728 7.95020438 -10.125 5.9375 C-9.18785156 5.35677734 -8.25070313 4.77605469 -7.28515625 4.17773438 C-6.38925781 3.63310547 -5.49335938 3.08847656 -4.5703125 2.52734375 C-3.74289551 2.01937256 -2.91547852 1.51140137 -2.06298828 0.98803711 C-1.04180908 0.49895874 -1.04180908 0.49895874 0 0 Z " fill="#9FD522" transform="translate(257,270)"/>
<path d="M0 0 C5.94 0.99 5.94 0.99 12 2 C12.68025637 3.99541868 13.34490497 5.99617991 14 8 C14.28875 8.680625 14.5775 9.36125 14.875 10.0625 C15 12 15 12 13.0625 14.75 C12.381875 15.4925 11.70125 16.235 11 17 C9.35 16.67 7.7 16.34 6 16 C9.75 13 9.75 13 12 13 C11.67 10.36 11.34 7.72 11 5 C10.28972656 4.80664062 9.57945312 4.61328125 8.84765625 4.4140625 C7.46900391 4.02347656 7.46900391 4.02347656 6.0625 3.625 C5.14597656 3.36976563 4.22945313 3.11453125 3.28515625 2.8515625 C1 2 1 2 0 0 Z " fill="#A3E21B" transform="translate(262,132)"/>
<path d="M0 0 C2.02045442 0.60183749 4.02111039 1.27306096 6 2 C7.43060128 4.86120256 7.38692581 6.84010585 7 10 C4.75 11.6875 4.75 11.6875 2 13 C0.66209359 13.99387334 -0.67218122 14.9926892 -2 16 C-2.66 16.33 -3.32 16.66 -4 17 C-4.144375 17.66 -4.28875 18.32 -4.4375 19 C-4.623125 19.66 -4.80875 20.32 -5 21 C-5.99 21.33 -6.98 21.66 -8 22 C-8.33 20.68 -8.66 19.36 -9 18 C-5.82272744 15.2101997 -2.98785555 12.9234179 0.8125 11.0625 C4.29793239 9.30171559 4.29793239 9.30171559 4.9375 5.75 C4.958125 4.8425 4.97875 3.935 5 3 C2.525 2.01 2.525 2.01 0 1 C0 0.67 0 0.34 0 0 Z " fill="#99CC2A" transform="translate(267,135)"/>
<path d="M0 0 C20.19054628 9.47082326 20.19054628 9.47082326 25 17 C25 17.66 25 18.32 25 19 C24.34 19 23.68 19 23 19 C22.67 17.68 22.34 16.36 22 15 C19.525 14.505 19.525 14.505 17 14 C17 13.34 17 12.68 17 12 C16.195625 11.731875 15.39125 11.46375 14.5625 11.1875 C13.716875 10.795625 12.87125 10.40375 12 10 C11.67 9.01 11.34 8.02 11 7 C9.35 6.67 7.7 6.34 6 6 C6 5.34 6 4.68 6 4 C4.68 4 3.36 4 2 4 C2 3.34 2 2.68 2 2 C1.34 2 0.68 2 0 2 C0 1.34 0 0.68 0 0 Z " fill="#A9D43D" transform="translate(287,121)"/>
<path d="M0 0 C0 0.66 0 1.32 0 2 C-2.30078125 3.69140625 -2.30078125 3.69140625 -5.3125 5.5625 C-6.29863281 6.18253906 -7.28476563 6.80257813 -8.30078125 7.44140625 C-11 9 -11 9 -14 10 C-15.68538601 11.99665314 -15.68538601 11.99665314 -17 14 C-18.65 13.67 -20.3 13.34 -22 13 C-22 12.34 -22 11.68 -22 11 C-20.88625 10.87625 -20.88625 10.87625 -19.75 10.75 C-16.91716483 10.2244492 -16.91716483 10.2244492 -15.1796875 8.15625 C-12.75469629 5.75733396 -10.37847058 4.35293039 -7.375 2.75 C-5.93253906 1.96882813 -5.93253906 1.96882813 -4.4609375 1.171875 C-2 0 -2 0 0 0 Z " fill="#A4DB2B" transform="translate(237,283)"/>
<path d="M0 0 C5.26797595 2.00160969 9.95421018 4.73302621 14.8125 7.5625 C15.69615234 8.06974609 16.57980469 8.57699219 17.49023438 9.09960938 C18.32490234 9.58365234 19.15957031 10.06769531 20.01953125 10.56640625 C20.78370361 11.00927979 21.54787598 11.45215332 22.33520508 11.90844727 C22.8845874 12.26865967 23.43396973 12.62887207 24 13 C24 13.33 24 13.66 24 14 C19.6602705 14.37197681 17.56338713 13.43353267 14 11 C12.906875 10.319375 11.81375 9.63875 10.6875 8.9375 C9.800625 8.298125 8.91375 7.65875 8 7 C8 6.34 8 5.68 8 5 C6.02 5 4.04 5 2 5 C1.34 3.35 0.68 1.7 0 0 Z " fill="#A2CE33" transform="translate(148,274)"/>
<path d="M0 0 C5.70629354 0.42797202 9.41078616 2.84345952 14 6 C13.01 6.33 12.02 6.66 11 7 C10.67 7.66 10.34 8.32 10 9 C7.69 8.01 5.38 7.02 3 6 C3 5.34 3 4.68 3 4 C1.68 3.67 0.36 3.34 -1 3 C-0.67 2.01 -0.34 1.02 0 0 Z " fill="#A8EB13" transform="translate(113,255)"/>
<path d="M0 0 C0.66 0.33 1.32 0.66 2 1 C1.01 1.33 0.02 1.66 -1 2 C-1.268125 2.804375 -1.53625 3.60875 -1.8125 4.4375 C-3 7 -3 7 -5.875 8.3125 C-9 9 -9 9 -13 9 C-13.33 10.32 -13.66 11.64 -14 13 C-15.65 12.67 -17.3 12.34 -19 12 C-15.1521704 8.75316474 -11.16526157 6.17544209 -6.8125 3.6875 C-6.18408203 3.31560547 -5.55566406 2.94371094 -4.90820312 2.56054688 C-3.30802143 1.64151204 -1.65675589 0.81262931 0 0 Z " fill="#A4D331" transform="translate(162,92)"/>
<path d="M0 0 C2.475 0.495 2.475 0.495 5 1 C5 1.66 5 2.32 5 3 C6.11375 3.185625 7.2275 3.37125 8.375 3.5625 C15.22773497 5.24819951 21.20516286 9.92585196 26 15 C21.27715399 13.2535798 16.88674395 10.96228523 12.4375 8.625 C11.68275391 8.23828125 10.92800781 7.8515625 10.15039062 7.453125 C6.1880692 5.37246987 2.96499336 3.4447403 0 0 Z " fill="#ACD54A" transform="translate(129,288)"/>
<path d="M0 0 C0.33 0 0.66 0 1 0 C1.33 13.2 1.66 26.4 2 40 C0.68 40 -0.64 40 -2 40 C-1.84152588 39.00798584 -1.68305176 38.01597168 -1.51977539 36.99389648 C-0.95621308 33.03604908 -0.78091881 29.09085729 -0.68359375 25.09765625 C-0.66281265 24.3750914 -0.64203156 23.65252655 -0.62062073 22.9080658 C-0.55584574 20.6262963 -0.4965797 18.34442333 -0.4375 16.0625 C-0.39424603 14.50454709 -0.35062969 12.9466042 -0.30664062 11.38867188 C-0.20023961 7.59255078 -0.09877501 3.79632686 0 0 Z " fill="#AFEF1A" transform="translate(108,216)"/>
<path d="M0 0 C0.66 0.33 1.32 0.66 2 1 C0.35 1.66 -1.3 2.32 -3 3 C-3 3.66 -3 4.32 -3 5 C-4.66279327 6.0064275 -6.32983484 7.00585407 -8 8 C-8.99 9.485 -8.99 9.485 -10 11 C-12.8203125 11.94921875 -12.8203125 11.94921875 -16.125 12.6875 C-17.76855469 13.06455078 -17.76855469 13.06455078 -19.4453125 13.44921875 C-20.28835937 13.63097656 -21.13140625 13.81273437 -22 14 C-18.4301466 10.13094129 -13.9559513 7.86155131 -9.4375 5.25 C-8.12362305 4.47076172 -8.12362305 4.47076172 -6.78320312 3.67578125 C-5.94595703 3.18980469 -5.10871094 2.70382813 -4.24609375 2.203125 C-3.47966553 1.75614258 -2.7132373 1.30916016 -1.92358398 0.84863281 C-1.28880127 0.56858398 -0.65401855 0.28853516 0 0 Z " fill="#A5D02A" transform="translate(228,169)"/>
<path d="M0 0 C5.76044212 0.60636233 10.72014369 2.75658279 16 5 C16 6.32 16 7.64 16 9 C16.99 9.33 17.98 9.66 19 10 C18.01 10.495 18.01 10.495 17 11 C15.21240234 10.21142578 15.21240234 10.21142578 13.0859375 8.9453125 C12.32539063 8.49542969 11.56484375 8.04554688 10.78125 7.58203125 C9.9871875 7.10121094 9.193125 6.62039062 8.375 6.125 C7.57320313 5.65191406 6.77140625 5.17882812 5.9453125 4.69140625 C1.61571608 2.10690226 1.61571608 2.10690226 0 1 C0 0.67 0 0.34 0 0 Z " fill="#A0CE30" transform="translate(120,168)"/>
<path d="M0 0 C5.17935061 1.46828943 9.34373412 3.81491263 13.875 6.625 C14.90753906 7.25535156 14.90753906 7.25535156 15.9609375 7.8984375 C17.64391658 8.92692472 19.32242532 9.962721 21 11 C19.02 11.99 19.02 11.99 17 13 C17 12.01 17 11.02 17 10 C14.33419666 8.78134705 12.52030496 7.95997654 9.5625 8.1875 C5.60103808 7.89763693 3.76350825 5.70070125 1 3 C0.67 2.01 0.34 1.02 0 0 Z " fill="#99BE38" transform="translate(127,262)"/>
<path d="M0 0 C0.33 0.66 0.66 1.32 1 2 C-1.75134539 4.95514876 -4.39733775 7.1524809 -8 9 C-8.99 9 -9.98 9 -11 9 C-11.33 7.68 -11.66 6.36 -12 5 C-10 4 -10 4 -7 4 C-6.67 3.34 -6.34 2.68 -6 2 C-4.02111039 1.27306096 -2.02045442 0.60183749 0 0 Z " fill="#ACE02B" transform="translate(271,285)"/>
<path d="M0 0 C1.98 0 3.96 0 6 0 C6.22429687 0.61359375 6.44859375 1.2271875 6.6796875 1.859375 C8.42512806 4.68926087 10.0309923 5.13933057 13.125 6.25 C14.49011719 6.75273437 14.49011719 6.75273437 15.8828125 7.265625 C16.58148438 7.50796875 17.28015625 7.7503125 18 8 C17.67 8.66 17.34 9.32 17 10 C14.0625 9.625 14.0625 9.625 11 9 C10.67 8.34 10.34 7.68 10 7 C8.35636866 6.27840576 6.68949614 5.60648579 5 5 C5 4.34 5 3.68 5 3 C4.34 3 3.68 3 3 3 C3 2.34 3 1.68 3 1 C2.01 1.33 1.02 1.66 0 2 C0 1.34 0 0.68 0 0 Z " fill="#A4EA13" transform="translate(123,282)"/>
<path d="M0 0 C0.6875 2.125 0.6875 2.125 1 4 C-1.80557726 2.92727928 -4.25158905 1.8434557 -6.8125 0.25 C-11.27019614 -1.49811613 -13.51341295 -0.46974403 -18 1 C-18 0.01 -18 -0.98 -18 -2 C-12.09183581 -3.77244926 -5.12992903 -3.41995269 0 0 Z " fill="#A3D22A" transform="translate(211,99)"/>
<path d="M0 0 C-0.60225193 3.01125966 -1.45390188 4.62382282 -3.99609375 6.375 C-6.30445151 7.64857669 -8.62928284 8.84700616 -11 10 C-11.75539062 10.37769531 -12.51078125 10.75539062 -13.2890625 11.14453125 C-14.13597656 11.56798828 -14.13597656 11.56798828 -15 12 C-13.41641358 8.83282717 -12.54736301 7.26731682 -9.3125 5.6875 C-8.549375 5.460625 -7.78625 5.23375 -7 5 C-7 4.34 -7 3.68 -7 3 C-2.61538462 0 -2.61538462 0 0 0 Z " fill="#A5EB0B" transform="translate(232,169)"/>
<path d="M0 0 C4.35819034 0.48424337 6.12591341 1.74270186 9 5 C9.5775 5.5775 10.155 6.155 10.75 6.75 C11.1625 7.1625 11.575 7.575 12 8 C11.67 8.66 11.34 9.32 11 10 C10.34 10 9.68 10 9 10 C9 9.34 9 8.68 9 8 C8.01 8 7.02 8 6 8 C6 7.34 6 6.68 6 6 C4.68 5.67 3.36 5.34 2 5 C2 4.34 2 3.68 2 3 C1.34 2.67 0.68 2.34 0 2 C0 1.34 0 0.68 0 0 Z " fill="#A4ED0F" transform="translate(151,278)"/>
<path d="M0 0 C3.625 0.125 3.625 0.125 6.625 1.125 C6.625 2.115 6.625 3.105 6.625 4.125 C4.315 3.795 2.005 3.465 -0.375 3.125 C-1.365 5.105 -2.355 7.085 -3.375 9.125 C-3.705 9.125 -4.035 9.125 -4.375 9.125 C-4.47265625 2.97265625 -4.47265625 2.97265625 -4.375 1.125 C-3.375 0.125 -3.375 0.125 0 0 Z " fill="#A2D031" transform="translate(113.375,163.875)"/>
<path d="M0 0 C5.68502535 1.64566523 10.76681636 4.29032784 16 7 C16 7.66 16 8.32 16 9 C17.65 9.66 19.3 10.32 21 11 C20.01 11.495 20.01 11.495 19 12 C17.02880859 11.11962891 17.02880859 11.11962891 14.6484375 9.7265625 C13.79765625 9.2315625 12.946875 8.7365625 12.0703125 8.2265625 C11.18085938 7.69804687 10.29140625 7.16953125 9.375 6.625 C8.02921875 5.84382812 8.02921875 5.84382812 6.65625 5.046875 C1.80811685 2.20283336 1.80811685 2.20283336 0 1 C0 0.67 0 0.34 0 0 Z " fill="#9DC63E" transform="translate(151,186)"/>
<path d="M0 0 C0.99 0.33 1.98 0.66 3 1 C2 2 1 3 0 4 C-0.45375 4.53625 -0.9075 5.0725 -1.375 5.625 C-3 7 -3 7 -5.5625 7.5 C-8.35862883 7.7756937 -8.35862883 7.7756937 -10 11 C-10.99 10.67 -11.98 10.34 -13 10 C-12.01 9.67 -11.02 9.34 -10 9 C-9.67 8.01 -9.34 7.02 -9 6 C-7.36935236 4.94228261 -5.69719127 3.94726954 -4 3 C-3.29875 2.4225 -2.5975 1.845 -1.875 1.25 C-0.946875 0.63125 -0.946875 0.63125 0 0 Z " fill="#A7E913" transform="translate(286,274)"/>
<path d="M0 0 C-1.95245185 1.19714555 -3.91214997 2.38248074 -5.875 3.5625 C-6.96554688 4.22378906 -8.05609375 4.88507813 -9.1796875 5.56640625 C-10.57574219 6.27603516 -10.57574219 6.27603516 -12 7 C-12.66 6.67 -13.32 6.34 -14 6 C-13.0625 3.625 -13.0625 3.625 -11 1 C-7.42604501 -0.36150666 -3.54075429 -1.77037715 0 0 Z " fill="#A4CE32" transform="translate(249,187)"/>
<path d="M0 0 C-4.62 2.64 -9.24 5.28 -14 8 C-12.9080771 3.6323084 -12.62238063 3.21367705 -9 1 C-5.15502826 -0.92248587 -4.3682952 -1.0920738 0 0 Z " fill="#A5D03A" transform="translate(162,119)"/>
<path d="M0 0 C0 0.66 0 1.32 0 2 C-1.65 2.33 -3.3 2.66 -5 3 C-5 3.66 -5 4.32 -5 5 C-7.28703308 6.19725883 -9.57884862 7.38297018 -11.875 8.5625 C-12.52597656 8.90474609 -13.17695313 9.24699219 -13.84765625 9.59960938 C-15.53529857 10.46082891 -17.26579593 11.23686703 -19 12 C-19.66 11.67 -20.32 11.34 -21 11 C-18.2089613 9.35309997 -15.41706312 7.70766259 -12.625 6.0625 C-11.8309375 5.59392578 -11.036875 5.12535156 -10.21875 4.64257812 C-9.45820313 4.19462891 -8.69765625 3.74667969 -7.9140625 3.28515625 C-7.2123291 2.87144775 -6.5105957 2.45773926 -5.78759766 2.03149414 C-2.26698225 0 -2.26698225 0 0 0 Z " fill="#9AC13A" transform="translate(185,80)"/>
<path d="M0 0 C0.99 0.33 1.98 0.66 3 1 C0.72402354 3.49552403 -1.60721178 5.06622986 -4.5625 6.6875 C-5.34753906 7.12449219 -6.13257813 7.56148438 -6.94140625 8.01171875 C-9 9 -9 9 -11 9 C-11 8.34 -11 7.68 -11 7 C-8.69921875 5.23828125 -8.69921875 5.23828125 -5.6875 3.3125 C-4.70136719 2.66925781 -3.71523437 2.02601563 -2.69921875 1.36328125 C-1.80847656 0.91339844 -0.91773438 0.46351563 0 0 Z " fill="#B0DC3F" transform="translate(258,293)"/>
<path d="M0 0 C1.65 0 3.3 0 5 0 C1.91730861 2.44413389 -1.28471111 4.33109524 -4.75 6.1875 C-5.73484375 6.71730469 -6.7196875 7.24710937 -7.734375 7.79296875 C-8.48203125 8.19128906 -9.2296875 8.58960938 -10 9 C-9.34 7.02 -8.68 5.04 -8 3 C-5.36 2.67 -2.72 2.34 0 2 C0 1.34 0 0.68 0 0 Z " fill="#AEDD3C" transform="translate(213,319)"/>
<path d="M0 0 C2.64 0.33 5.28 0.66 8 1 C8.33 2.32 8.66 3.64 9 5 C11.97 5.495 11.97 5.495 15 6 C14.67 6.99 14.34 7.98 14 9 C7.07 5.04 7.07 5.04 0 1 C0 0.67 0 0.34 0 0 Z " fill="#A6D241" transform="translate(172,198)"/>
<path d="M0 0 C6.03523728 3.27408894 12.05469543 6.56493514 18 10 C16.375 10.6875 16.375 10.6875 14 11 C10.29361941 9.48719159 7.73975883 7.85887878 5 5 C4.113125 4.484375 3.22625 3.96875 2.3125 3.4375 C1.549375 2.963125 0.78625 2.48875 0 2 C0 1.34 0 0.68 0 0 Z " fill="#ABD149" transform="translate(161,163)"/>
<path d="M0 0 C0 0.66 0 1.32 0 2 C-1.32 2.33 -2.64 2.66 -4 3 C-4 3.99 -4 4.98 -4 6 C-7.83887763 7.48320272 -10.06204091 8.22419163 -14 7 C-12.04480616 5.82807953 -10.0857461 4.6626071 -8.125 3.5 C-7.03445312 2.8503125 -5.94390625 2.200625 -4.8203125 1.53125 C-2 0 -2 0 0 0 Z " fill="#A8E81E" transform="translate(175,87)"/>
<path d="M0 0 C0.66 0.33 1.32 0.66 2 1 C0.8125 2.9375 0.8125 2.9375 -1 5 C-2.66666667 5.33333333 -4.33333333 5.66666667 -6 6 C-7.68538601 7.99665314 -7.68538601 7.99665314 -9 10 C-9.66 10 -10.32 10 -11 10 C-8.55399712 4.54353203 -5.51843849 2.3482717 0 0 Z " fill="#A4D139" transform="translate(100,128)"/>
<path d="M0 0 C0.66 0 1.32 0 2 0 C2 0.99 2 1.98 2 3 C4.31 3.33 6.62 3.66 9 4 C9.33 4.99 9.66 5.98 10 7 C6.7 6.67 3.4 6.34 0 6 C-1 2 -1 2 0 0 Z " fill="#A7EB15" transform="translate(258,106)"/>
<path d="M0 0 C3 1 3 1 4.3125 2.375 C6.06414684 4.23177443 6.06414684 4.23177443 9.125 5.5 C12 7 12 7 13 10 C7.78891146 8.6351911 4.83408676 6.65575714 1 3 C0.67 2.01 0.34 1.02 0 0 Z " fill="#A3CC40" transform="translate(88,262)"/>
<path d="M0 0 C-4.75 3 -4.75 3 -7 3 C-7 8.28 -7 13.56 -7 19 C-7.33 19 -7.66 19 -8 19 C-8.02690104 16.20826945 -8.04679053 13.41679652 -8.0625 10.625 C-8.07087891 9.8309375 -8.07925781 9.036875 -8.08789062 8.21875 C-8.11328125 2.2265625 -8.11328125 2.2265625 -7 0 C-3.86650268 -1.04449911 -3.01031744 -0.93423645 0 0 Z " fill="#A6D624" transform="translate(219,204)"/>
<path d="M0 0 C-2.79716804 3.29078593 -6.19528578 5.06305458 -10 7 C-10.66 6.67 -11.32 6.34 -12 6 C-12 5.34 -12 4.68 -12 4 C-11.01 3.34 -10.02 2.68 -9 2 C-9 1.67 -9 1.34 -9 1 C-3.375 -1.125 -3.375 -1.125 0 0 Z " fill="#ACE81D" transform="translate(276,169)"/>
<path d="M0 0 C0.33 0 0.66 0 1 0 C1.03738281 1.04800781 1.07476562 2.09601563 1.11328125 3.17578125 C1.17894515 4.55472305 1.24539235 5.93362771 1.3125 7.3125 C1.33505859 8.00279297 1.35761719 8.69308594 1.38085938 9.40429688 C1.5836997 13.49206734 1.5836997 13.49206734 3.54296875 16.98046875 C4.02378906 17.31691406 4.50460938 17.65335938 5 18 C3.35 18 1.7 18 0 18 C-1.23180249 11.84098757 -0.73030908 6.21324498 0 0 Z " fill="#A3C142" transform="translate(110,237)"/>
<path d="M0 0 C0 0.99 0 1.98 0 3 C-6.625 4.25 -6.625 4.25 -10 2 C-9.67 1.34 -9.34 0.68 -9 0 C-2.57142857 -1.28571429 -2.57142857 -1.28571429 0 0 Z " fill="#A9EE15" transform="translate(205,186)"/>
<path d="M0 0 C0.66 0 1.32 0 2 0 C0.64382219 4.06853343 -1.60247226 5.46850875 -5 8 C-7.375 8.8125 -7.375 8.8125 -9 9 C-9.33 8.01 -9.66 7.02 -10 6 C-8.35 5.67 -6.7 5.34 -5 5 C-5 4.34 -5 3.68 -5 3 C-3.35 2.67 -1.7 2.34 0 2 C0 1.34 0 0.68 0 0 Z " fill="#A9E914" transform="translate(185,80)"/>
<path d="M0 0 C-6.5 4 -6.5 4 -11 4 C-10.67 2.68 -10.34 1.36 -10 0 C-6.33694766 -0.74926071 -3.57644848 -1.2380014 0 0 Z " fill="#A9D723" transform="translate(193,101)"/>
<path d="M0 0 C7.42857143 1 7.42857143 1 11 2 C11 2.99 11 3.98 11 5 C6.12637153 4.54663921 3.60957611 3.2910841 0 0 Z " fill="#A3D928" transform="translate(165,309)"/>
<path d="M0 0 C1.31872662 0.39651917 2.62997101 0.81798691 3.9375 1.25 C4.66839844 1.48203125 5.39929688 1.7140625 6.15234375 1.953125 C6.76207031 2.29859375 7.37179688 2.6440625 8 3 C8.33 4.32 8.66 5.64 9 7 C6.03 6.01 3.06 5.02 0 4 C0 2.68 0 1.36 0 0 Z " fill="#A5EA11" transform="translate(164,304)"/>
<path d="M0 0 C-1.22025063 3.6607519 -2.126491 3.92339441 -5.4375 5.6875 C-6.64212891 6.34298828 -6.64212891 6.34298828 -7.87109375 7.01171875 C-10 8 -10 8 -12 8 C-12 7.34 -12 6.68 -12 6 C-10.824375 5.87625 -10.824375 5.87625 -9.625 5.75 C-6.85955198 5.28474077 -6.85955198 5.28474077 -5.8125 3 C-5.544375 2.34 -5.27625 1.68 -5 1 C-3 0 -3 0 0 0 Z " fill="#A6D03A" transform="translate(247,301)"/>
<path d="M0 0 C0.66 0.66 1.32 1.32 2 2 C-1.3 2.33 -4.6 2.66 -8 3 C-8 3.66 -8 4.32 -8 5 C-9.65 5 -11.3 5 -13 5 C-9.09485624 0.70434186 -5.84241444 -0.50803604 0 0 Z " fill="#92B82D" transform="translate(203,72)"/>
<path d="M0 0 C0.33 0.99 0.66 1.98 1 3 C1.66 3 2.32 3 3 3 C3 3.66 3 4.32 3 5 C4.32 5 5.64 5 7 5 C7 5.66 7 6.32 7 7 C1.52173913 7.36521739 1.52173913 7.36521739 -0.875 5.6875 C-2 4 -2 4 -2 1 C-1.34 0.67 -0.68 0.34 0 0 Z " fill="#ACEA20" transform="translate(286,120)"/>
<path d="M0 0 C0.66 0.33 1.32 0.66 2 1 C-0.65774057 4.98661086 -3.49917568 6.49972523 -8 8 C-7.9375 6.25 -7.9375 6.25 -7 4 C-4.74876994 2.27481113 -2.59865097 1.23093993 0 0 Z " fill="#A8E720" transform="translate(261,269)"/>
<path d="M0 0 C4.30764815 1.56641751 8.06171464 3.68336156 12 6 C10 7 10 7 8.125 6.58203125 C2.33202907 4.48420906 2.33202907 4.48420906 0.5 1.8125 C0.335 1.214375 0.17 0.61625 0 0 Z " fill="#A2C93B" transform="translate(115,255)"/>
<path d="M0 0 C1.32 0 2.64 0 4 0 C4 0.66 4 1.32 4 2 C4.763125 1.896875 5.52625 1.79375 6.3125 1.6875 C7.199375 1.790625 8.08625 1.89375 9 2 C10.8125 4.5 10.8125 4.5 12 7 C7.69235185 5.43358249 3.93828536 3.31663844 0 1 C0 0.67 0 0.34 0 0 Z " fill="#9CCB36" transform="translate(139,179)"/>
<path d="M0 0 C0.66 0.33 1.32 0.66 2 1 C0.7934375 1.37125 0.7934375 1.37125 -0.4375 1.75 C-3.171081 2.72238859 -3.171081 2.72238859 -3.8125 5.125 C-3.874375 5.74375 -3.93625 6.3625 -4 7 C-5.98 7 -7.96 7 -10 7 C-7.20283196 3.70921407 -3.80471422 1.93694542 0 0 Z " fill="#94BD29" transform="translate(257,270)"/>
<path d="M0 0 C4.97209562 1.76429199 9.43438061 4.3939166 14 7 C13.01 7.495 13.01 7.495 12 8 C7.75476105 6.39802304 3.73748858 4.60491628 0 2 C0 1.34 0 0.68 0 0 Z " fill="#A2CC3D" transform="translate(215,80)"/>
<path d="M0 0 C0 0.66 0 1.32 0 2 C-1.75 3.2890625 -1.75 3.2890625 -4 4.625 C-4.7425 5.07101562 -5.485 5.51703125 -6.25 5.9765625 C-6.8275 6.31429688 -7.405 6.65203125 -8 7 C-8.99 6.34 -9.98 5.68 -11 5 C-9.54462432 4.16151196 -8.08559627 3.32936066 -6.625 2.5 C-5.81289062 2.0359375 -5.00078125 1.571875 -4.1640625 1.09375 C-2 0 -2 0 0 0 Z " fill="#A0CF2D" transform="translate(237,283)"/>
<path d="M0 0 C1.98 0.66 3.96 1.32 6 2 C6 2.99 6 3.98 6 5 C7.32 5.66 8.64 6.32 10 7 C9.01 7.33 8.02 7.66 7 8 C1.29824561 3.89473684 1.29824561 3.89473684 0 0 Z " fill="#A9DB30" transform="translate(127,262)"/>
<path d="M0 0 C4.455 0.99 4.455 0.99 9 2 C9 2.66 9 3.32 9 4 C9.66 4 10.32 4 11 4 C11.33 4.99 11.66 5.98 12 7 C7.69235185 5.43358249 3.93828536 3.31663844 0 1 C0 0.67 0 0.34 0 0 Z " fill="#9CC435" transform="translate(219,107)"/>
<path d="M0 0 C1.98 0.66 3.96 1.32 6 2 C6 2.66 6 3.32 6 4 C6.66 4 7.32 4 8 4 C8 4.66 8 5.32 8 6 C5.03 5.01 2.06 4.02 -1 3 C-0.67 2.01 -0.34 1.02 0 0 Z " fill="#A7EB16" transform="translate(111,274)"/>
<path d="M0 0 C0.66 0.33 1.32 0.66 2 1 C0.71034824 2.37562854 -0.62689293 3.70766393 -2 5 C-2.66 5 -3.32 5 -4 5 C-4.33 5.66 -4.66 6.32 -5 7 C-5.66 5.68 -6.32 4.36 -7 3 C-4.69631264 1.93347808 -2.35981813 0.93578995 0 0 Z " fill="#A9EC10" transform="translate(246,161)"/>
<path d="M0 0 C4.50802601 1.25805377 7.4912812 2.90407165 11 6 C9.68 6 8.36 6 7 6 C7 5.34 7 4.68 7 4 C4.69 3.67 2.38 3.34 0 3 C0 2.01 0 1.02 0 0 Z " fill="#9ECA2F" transform="translate(260,106)"/>
<path d="M0 0 C3.96 1.98 7.92 3.96 12 6 C8.69538587 7.10153804 8.01331168 6.95317786 4.875 5.8125 C4.17117187 5.57144531 3.46734375 5.33039063 2.7421875 5.08203125 C1 4 1 4 0 0 Z " fill="#A4CD38" transform="translate(244,96)"/>
<path d="M0 0 C3.63 1.98 7.26 3.96 11 6 C9 7 9 7 5.9375 6.25 C4.968125 5.8375 3.99875 5.425 3 5 C2.67 4.01 2.34 3.02 2 2 C1.34 2 0.68 2 0 2 C0 1.34 0 0.68 0 0 Z " fill="#A7CF47" transform="translate(232,89)"/>
<path d="M0 0 C0.721875 0.350625 1.44375 0.70125 2.1875 1.0625 C5.3122705 2.10409017 6.88161996 1.89096572 10 1 C8.875 2.5 8.875 2.5 7 4 C3.8125 4.1875 3.8125 4.1875 1 4 C0.67 2.68 0.34 1.36 0 0 Z " fill="#A6EC10" transform="translate(197,322)"/>
<path d="M0 0 C4.455 0.99 4.455 0.99 9 2 C9.33 3.32 9.66 4.64 10 6 C6.40992874 4.66654496 3.20429093 3.1056769 0 1 C0 0.67 0 0.34 0 0 Z " fill="#AAD33E" transform="translate(155,303)"/>
<path d="M0 0 C5.02692063 0.45699278 8.14896261 2.99241748 12 6 C11.01 6.495 11.01 6.495 10 7 C7.6171875 5.8203125 7.6171875 5.8203125 4.875 4.125 C3.96492187 3.57070313 3.05484375 3.01640625 2.1171875 2.4453125 C1.41851562 1.96835937 0.71984375 1.49140625 0 1 C0 0.67 0 0.34 0 0 Z " fill="#A4D538" transform="translate(143,296)"/>
<path d="M0 0 C0.66 0.33 1.32 0.66 2 1 C0.35 1.66 -1.3 2.32 -3 3 C-3 3.66 -3 4.32 -3 5 C-6 7 -6 7 -8.1875 6.625 C-8.785625 6.41875 -9.38375 6.2125 -10 6 C-8.3811004 4.96951963 -6.75467511 3.95085322 -5.125 2.9375 C-4.22007812 2.36902344 -3.31515625 1.80054688 -2.3828125 1.21484375 C-1.20332031 0.61349609 -1.20332031 0.61349609 0 0 Z " fill="#A3C634" transform="translate(228,169)"/>
<path d="M0 0 C0 0.99 0 1.98 0 3 C-1.6210103 3.69685498 -3.24696066 4.38222861 -4.875 5.0625 C-5.77992188 5.44535156 -6.68484375 5.82820313 -7.6171875 6.22265625 C-10 7 -10 7 -12 6 C-10.37829621 4.99466333 -8.75252763 3.99588093 -7.125 3 C-5.76761719 2.1646875 -5.76761719 2.1646875 -4.3828125 1.3125 C-2 0 -2 0 0 0 Z " fill="#9AC82F" transform="translate(143,104)"/>
<path d="M0 0 C3.59391114 1.33488128 6.75490696 2.96022723 10 5 C8 6 8 6 6.0546875 5.44140625 C5.33539063 5.15136719 4.61609375 4.86132812 3.875 4.5625 C3.15054688 4.27503906 2.42609375 3.98757812 1.6796875 3.69140625 C0.84824219 3.34916016 0.84824219 3.34916016 0 3 C0 2.01 0 1.02 0 0 Z " fill="#A0CB33" transform="translate(205,74)"/>
<path d="M0 0 C0.33 0 0.66 0 1 0 C1.33 2.64 1.66 5.28 2 8 C0.68 8 -0.64 8 -2 8 C-1.125 1.125 -1.125 1.125 0 0 Z " fill="#A2EA16" transform="translate(108,248)"/>
<path d="M0 0 C-1.28813342 0.83878455 -2.58063256 1.67086783 -3.875 2.5 C-4.59429687 2.9640625 -5.31359375 3.428125 -6.0546875 3.90625 C-8 5 -8 5 -10 5 C-10 4.34 -10 3.68 -10 3 C-9.01 3 -8.02 3 -7 3 C-7 2.01 -7 1.02 -7 0 C-2.25 -1.125 -2.25 -1.125 0 0 Z " fill="#A4CB3E" transform="translate(259,181)"/>
<path d="M0 0 C0.66 0.99 1.32 1.98 2 3 C-2.1077065 4.58706842 -3.59232396 5.10191901 -8 4 C-5.36 2.68 -2.72 1.36 0 0 Z " fill="#ABEA17" transform="translate(256,155)"/>
<path d="M0 0 C2.64 0.33 5.28 0.66 8 1 C8.66 2.65 9.32 4.3 10 6 C6.40992874 4.66654496 3.20429093 3.1056769 0 1 C0 0.67 0 0.34 0 0 Z " fill="#95C823" transform="translate(231,114)"/>
<path d="M0 0 C0.33 0.66 0.66 1.32 1 2 C0.13375 1.79375 -0.7325 1.5875 -1.625 1.375 C-5.36428602 0.95952378 -7.54942141 1.60333724 -11 3 C-11 2.01 -11 1.02 -11 0 C-7.0323069 -1.0502717 -3.98866127 -0.99716532 0 0 Z " fill="#99C22D" transform="translate(204,97)"/>
<path d="M0 0 C-0.33 1.32 -0.66 2.64 -1 4 C-2.98 3.34 -4.96 2.68 -7 2 C-7 1.34 -7 0.68 -7 0 C-3.98968256 -0.93423645 -3.13349732 -1.04449911 0 0 Z " fill="#A4EC14" transform="translate(269,130)"/>
<path d="M0 0 C-1.26239712 0.86658615 -2.53527501 1.71792059 -3.8125 2.5625 C-4.87404297 3.27599609 -4.87404297 3.27599609 -5.95703125 4.00390625 C-8 5 -8 5 -11 4 C-10.01 3.67 -9.02 3.34 -8 3 C-8 2.34 -8 1.68 -8 1 C-2.25 -1.125 -2.25 -1.125 0 0 Z " fill="#A2CA42" transform="translate(143,130)"/>
<path d="M0 0 C1.65 0 3.3 0 5 0 C2.47043472 3.0916909 -0.22454612 3.90931332 -4 5 C-3.67 4.01 -3.34 3.02 -3 2 C-2.01 2 -1.02 2 0 2 C0 1.34 0 0.68 0 0 Z " fill="#A2D131" transform="translate(221,314)"/>
<path d="M0 0 C0.66 0.33 1.32 0.66 2 1 C1.67 1.99 1.34 2.98 1 4 C-2.0625 5.1875 -2.0625 5.1875 -5 6 C-4.67 5.01 -4.34 4.02 -4 3 C-3.34 3 -2.68 3 -2 3 C-2 2.34 -2 1.68 -2 1 C-1.34 0.67 -0.68 0.34 0 0 Z " fill="#A8EB0E" transform="translate(239,282)"/>
<path d="M0 0 C3.375 0.3125 3.375 0.3125 7 1 C7.66 1.99 8.32 2.98 9 4 C3.46153846 3.38461538 3.46153846 3.38461538 1.125 1.4375 C0.75375 0.963125 0.3825 0.48875 0 0 Z " fill="#A4D62D" transform="translate(101,272)"/>
<path d="M0 0 C0.66 0.99 1.32 1.98 2 3 C-0.30368736 4.06652192 -2.64018187 5.06421005 -5 6 C-5.66 5.67 -6.32 5.34 -7 5 C-4.69 3.35 -2.38 1.7 0 0 Z " fill="#9BC439" transform="translate(287,252)"/>
<path d="M0 0 C-5.2734375 3.22265625 -5.2734375 3.22265625 -7 4 C-7.66 3.67 -8.32 3.34 -9 3 C-9 2.34 -9 1.68 -9 1 C-2.25 -1.125 -2.25 -1.125 0 0 Z " fill="#A2CA2A" transform="translate(235,195)"/>
<path d="M0 0 C-0.66 1.65 -1.32 3.3 -2 5 C-3.65 5 -5.3 5 -7 5 C-7 4.34 -7 3.68 -7 3 C-2.61538462 0 -2.61538462 0 0 0 Z " fill="#AEEB1C" transform="translate(232,169)"/>
<path d="M0 0 C0.33 0.66 0.66 1.32 1 2 C0.34 2 -0.32 2 -1 2 C-1.33 3.32 -1.66 4.64 -2 6 C-3.65 5.67 -5.3 5.34 -7 5 C-2.25 1.125 -2.25 1.125 0 0 Z " fill="#9BCA2E" transform="translate(150,99)"/>
<path d="M0 0 C0.66 0 1.32 0 2 0 C2 1.98 2 3.96 2 6 C1.01 6.33 0.02 6.66 -1 7 C-1.33 6.01 -1.66 5.02 -2 4 C-1.34 4 -0.68 4 0 4 C0 2.68 0 1.36 0 0 Z " fill="#A4EB17" transform="translate(291,249)"/>
<path d="M0 0 C0.33 0.66 0.66 1.32 1 2 C0.34 2 -0.32 2 -1 2 C-1 2.66 -1 3.32 -1 4 C-2.98 4 -4.96 4 -7 4 C-4.82575883 1.49962266 -3.26954202 0.56371414 0 0 Z " fill="#9FD021" transform="translate(192,76)"/>
</svg>
